<svg width="367" height="385" viewBox="0 0 367 385" fill="none" xmlns="http://www.w3.org/2000/svg">
<path d="M84.56 76.92C94.0879 64.7243 101.576 72.0027 111.92 76.6C115.898 78.368 119.631 79.3344 122 83.48C124.315 87.5309 126.836 92.9275 120.56 87C112.321 79.2184 102.555 72.02 91.44 68.6C86.3055 67.0202 79.1422 68.28 73.76 68.28C67.6568 68.28 68.72 74.3875 68.72 79.08C68.72 87.2001 80.2879 93.9051 86.64 95.72C93.3234 97.6295 104.252 98.52 111.2 98.52C113.506 98.52 124.289 97.3427 119.12 99.64C115.865 101.086 110.56 104.28 106.88 104.28C103.154 104.28 92.3542 101.4 96.08 101.4C100.091 101.4 107.6 102.709 107.6 97.08C107.6 92.6903 106.961 88.3989 109.04 84.76C112.174 79.2758 106.842 78.3176 103.6 81.56C101.776 83.384 104.72 92.2213 104.72 94.92C104.72 102.296 102.18 98.7941 97.52 98.52C91.441 98.1624 91.2025 97.786 86.72 94.2C83.7571 91.8297 83.3799 83.8601 86 81.24C88.0398 79.2002 90.0073 80.2695 92.48 79.72C96.2376 78.885 94.932 75.348 96.88 73.4C99.0068 71.2732 107.629 72.3706 109.04 74.84C112.658 81.1713 108.859 76.92 104.72 76.92C100.43 76.92 97.1332 74.526 92.48 75.56C86.2129 76.9527 86 77.8557 86 84.12C86 90.3164 86.7455 89.9856 90.64 93.88C98.1987 101.439 103.28 96.5989 103.28 87C103.28 84.5459 102.148 74.7355 97.52 80.52C94.367 84.4613 93.5752 84.7081 98.24 88.44C98.9673 89.0219 100.4 79.5528 100.4 82.68C100.4 88.301 96.08 90.5281 96.08 83.4C96.08 78.1305 100.4 73.8045 100.4 81.24C100.4 88.4252 98.96 86.6357 98.96 80.52C98.96 74.0743 104.429 83.0366 105.04 83.8C107.31 86.6374 106.16 92.6655 106.16 96.36C106.16 103.888 109.402 99.0979 113.68 102.52C115.692 104.129 126.32 100.853 126.32 104.28C126.32 105.648 119.478 101.4 116.96 101.4C112.4 101.4 107.84 101.4 103.28 101.4C98.8104 101.4 94.7621 100.113 91.76 96.36C89.6322 93.7002 84.596 94.5168 82 92.44C74.9501 86.8001 69.6484 80.3981 65.52 72.6C62.2227 66.3717 66.1309 74.3447 70.88 75.4C76.2311 76.5891 78.475 79.5401 82.4 82.68C87.3546 86.6437 90.7349 97.08 98.24 97.08C101.331 97.08 122.593 100.404 123.36 97.72C128.955 78.1384 100.45 76.92 87.44 76.92C80.3223 76.92 71.5685 73.4961 64.4 72.6C56.5267 71.6158 80.2255 71.16 88.16 71.16C92.6438 71.16 96.5754 73.815 100.4 74.04C103.086 74.198 110.058 75.3119 111.92 77.64C117.155 84.1843 127.777 84.9369 133.84 91C137.973 95.1334 127.953 94.643 125.6 94.12C121.097 93.1194 117.333 87.8814 115.12 84.12C113.305 81.0351 110.438 78.36 106.88 78.36C102.887 78.36 97.1943 74.2772 101.84 76.6C105.925 78.6424 110.041 84.3032 114.16 85.48C117.554 86.4498 122.256 88.7602 124.56 91.64C125.534 92.8577 124.88 104.26 124.88 100.68C124.88 95.3956 120.85 92.1292 118.4 87.72C116.83 84.8939 113.82 81.24 110.48 81.24C107.864 81.24 99.1749 82.5887 97.52 80.52C95.9646 78.5758 90.9253 78.1653 88.56 75.8C85.6602 72.9002 80.5819 74.04 76.64 74.04C70.9915 74.04 70.6851 76.92 65.84 76.92C58.7504 76.92 60.08 77.6032 60.08 71.88C60.08 63.1448 62.8743 53.0636 57.2 46.68C52.6942 41.611 51.44 41.5153 51.44 48.84C51.44 54.2219 56.7029 56.6381 60.08 59.64C64.3828 63.4647 64.9996 63.5994 68 69C70.856 74.1408 66.3326 77.0528 65.84 81.24C65.1675 86.9566 63.0029 87.5533 64.32 93.48C64.9535 96.3308 65.2089 102.411 66.96 104.6C69.1923 107.39 68.72 114.437 68.72 117.96C68.72 122.84 71.6 127.584 71.6 132.36C71.6 153.668 75.7636 174.619 74.48 196.44C74.402 197.766 70.7948 199.16 69.52 199.16C67.6543 199.16 70.0413 193.734 70.24 192.84C70.7683 190.462 72.0274 182.586 73.36 180.92C77.7065 175.487 76.9603 161.161 73.76 155.4C69.0172 146.863 65.0554 139.269 62.88 129.48C60.7116 119.722 59.8591 108.907 57.12 99.32C53.6108 87.0377 58.64 74.0213 58.64 61.16C58.64 58.0213 56.9306 48.0967 58.96 45.56C61.7074 42.1258 65.9675 39.9925 69.04 36.92C74.4842 31.4758 81.8191 29.2609 87.44 23.64C92.3446 18.7354 95.8887 12.992 99.6 7.16C102.084 3.25717 103.28 -3.25586 103.28 4.2C103.28 12.3271 107.297 21.9153 109.12 30.12C110.599 36.7741 115.504 48.0241 120.24 52.76C133.158 65.6781 149.36 81.0052 149.36 101.4C149.36 117.301 140.837 135.099 133.52 148.92C132.283 151.256 130.899 154.783 128.56 156.12C127.612 156.661 124.026 158.987 123.44 159.72C120.18 163.795 114.735 164.691 113.28 171.24C111.113 180.994 100.303 190.915 94.64 198.6C85.0223 211.653 80.24 227.675 80.24 243.64C80.24 248.405 80.5627 251.93 81.76 256.12C82.6917 259.381 85.8006 263.611 86 267C86.5622 276.557 86 247.853 86 238.28C86 232.973 86 227.667 86 222.36C86 207.938 91.0798 194.783 96.16 181.32C100.739 169.185 105.254 156.308 110.8 144.6C112.526 140.957 113.809 135.017 116.56 131.96C119.006 129.242 121.614 126.836 123.44 123.64C130.883 110.614 136.829 96.9921 143.92 83.8C146.63 78.7581 158.304 62.5032 156.48 56.12C155.604 53.0546 145.165 49.727 142.16 49.56C136.367 49.2382 133.705 49.8157 129.2 47C120.873 41.7955 115.599 28.7236 108.72 21.08C106.006 18.0647 102.24 16.0283 99.76 12.84C95.8653 7.83259 94.1884 11.9738 97.2 15.32C103.577 22.4054 112.823 37.0125 113.36 46.68C113.568 50.4279 120.095 57.7354 122.72 60.36C128.357 65.9965 135.66 73.9063 139.92 80.6C145.648 89.6014 150.921 97.1123 149.28 108.6C148.472 114.257 144.421 122.157 141.84 127.32C139.058 132.883 135.179 132.861 131.36 136.68C124.928 143.112 116.698 147.822 110.16 154.36C101.975 162.545 98.2489 172.956 91.76 182.04C88.6893 186.339 89.0517 188.891 83.12 189.24C77.7716 189.555 81.0154 197.671 73.04 193.24C69.4071 191.222 66.2013 188.829 62.32 187.72C61.3007 187.429 58.7368 175.239 58.64 173.4C58.1255 163.624 58.64 153.672 58.64 143.88C58.64 138.135 56.0841 132.991 55.76 127.32C55.3683 120.465 54.4162 112.993 52.96 106.44C51.6574 100.578 52.88 92.9865 52.88 87C52.88 80.7344 51.453 72.5706 54 66.84C58.3657 57.0171 56.0101 43.5974 60.4 33.72C64.9779 23.4197 76.0927 15.3137 86 10.36C88.1835 9.26825 97.0491 1.42465 93.92 2.12C88.6091 3.3002 82.2423 21.4168 80.24 26.2C75.1693 38.3134 67.28 49.9465 67.28 63.32C67.28 84.2303 63.7291 107.45 60 127.96C58.3993 136.764 55.76 146.363 55.76 155.4C55.76 168.781 55.8365 181.304 58.72 194.28C61.2451 205.643 71.5783 196.865 78.8 196.44C84.1437 196.126 88.6824 190.852 93.92 189.24C97.3804 188.175 104.511 185.376 107.28 183.16C114.25 177.584 113.618 167.229 119.44 160.76C125.241 154.315 146.987 126.514 155.12 136.68C157.307 139.413 163.803 138.189 166.96 139.16C172.046 140.725 177.092 142.727 181.76 145.32C186.635 148.028 193.645 149.088 198.96 151.48C206.809 155.012 213.86 159.789 221.04 164.76C230.988 171.647 236.364 181.699 244.4 190.68C248.373 195.121 248.67 201.365 250.96 206.6C255.255 216.418 256.593 227.952 260.96 237.56C265.412 247.355 264.56 258.601 264.56 269.16C264.56 273.981 265.04 276.184 262.8 278.2C259.735 280.959 256.996 284.571 253.76 287.16C243.893 295.054 233.012 299.988 223.52 309.48C211.148 321.852 194.288 333.178 177.36 337.88C162.666 341.962 149.436 347.64 134.16 347.64C123.458 347.64 112.336 340.433 104.72 333.24C95.9072 324.917 89.19 321.531 84.88 309.08C82.9853 303.606 80.24 299.606 80.24 293.64C80.24 287.64 80.24 281.64 80.24 275.64C80.24 265.313 74.8392 248.291 80.24 238.84C92.1737 217.956 101.942 194.862 113.28 173.32C114.119 171.725 129.395 138.132 135.68 143.16C142.231 148.401 150.145 151.509 158 155C167.657 159.292 178.843 164.887 186.8 171.96C190.907 175.611 195.506 177.756 198.32 182.68C200.235 186.031 205.581 192.652 209.04 193.64C216.919 195.891 220.56 211.559 225.04 217.32C233.07 227.644 238.825 240.881 245.84 252.28C251.863 262.068 251.6 273.187 251.6 284.28C251.6 286.828 251.6 297.876 251.6 295.08C251.6 290.105 252.107 285.297 249.04 281.08C245.29 275.924 241.31 261.922 244.72 255.48C245.636 253.75 250.582 249.319 252.4 248.28C256.659 245.847 258.541 239.847 262.4 236.76C263.8 235.64 260.522 248.165 257.36 251.16C253.559 254.761 249.295 254.762 245.84 259.08C241.218 264.857 245.618 278.144 250.48 282.52C252.352 284.205 260.804 284.825 261.6 282.04C263.243 276.291 254.835 280.14 251.6 279.96C243.049 279.485 245.84 246.355 245.84 254.92C245.84 258.252 239.774 259.531 237.52 261.56C233.538 265.143 231.138 263.902 226.48 261.24C217.053 255.853 221.36 247.328 221.36 238.92C221.36 234.455 222.905 230.439 226 227C228.845 223.839 232.212 220.308 235.12 217.4C237.985 214.535 239.792 211.07 243.28 208.28C246.344 205.829 237.997 213.856 236.08 215.16C227.303 221.129 226.214 228.173 220.24 235.64C217.736 238.77 222.054 246.005 222.72 249C224.288 256.055 226.144 257.103 232.16 258.44C235.809 259.251 239.186 265.962 240.08 258.36C240.544 254.42 245.837 251.16 249.44 251.16C254.235 251.16 255.648 249.933 249.84 255.16C246.696 257.989 240.886 255.987 237.52 258.68C232.609 262.609 229.869 256.815 226.4 254.04C225.076 252.981 218.525 247.611 218.48 246.84C218.08 240.048 227.134 227.334 222.48 222.68C217.464 217.664 219.361 226.395 216.32 228.76C213.588 230.885 207.671 235.156 204.08 233.56C199.96 231.729 195.141 229.321 191.84 226.68C190.396 225.525 189.991 216.508 189.6 214.36C189.004 211.084 184.879 203.959 188.56 207.64C192.179 211.259 194.487 216.092 196.88 220.28C201.502 228.369 202.976 237.885 214.88 235.24C218.627 234.407 220.032 227.368 222.48 224.92C226.045 221.355 227.512 216.422 232.24 213.72C235.361 211.936 237.853 204.574 235.44 209.4C232.471 215.337 229.1 221.42 222.8 224.92C215.992 228.702 203.792 238.668 197.2 228.12C192.881 221.21 184.09 217.973 189.36 207.96C193.06 200.93 202.718 193.121 209.84 189.56C213.878 187.541 217.236 185.611 220.72 182.76C225.929 178.498 235.636 175.844 224.88 177.8C217.971 179.056 211.157 181.795 205.52 185.24C204.036 186.147 200.6 188.569 199.76 190.04C198.361 192.487 199.224 196.011 197.6 197.96C195.398 200.602 193.953 205.139 191.44 208.28C188.6 211.83 195.379 219.25 192.24 222.04C192.147 222.123 170.373 206.76 167.76 205.08C162.621 201.776 155.953 198.924 158.08 191.48C159.17 187.666 164.036 184.756 165.12 179.88C166.626 173.101 174.683 167.93 176.64 161.08C177.906 156.649 174.193 162.261 173.84 162.68C170.856 166.224 167.827 170.25 164.88 174.04C160.768 179.326 158 183.186 158 189.96C158 194.011 156.641 201.301 158.32 205.08C160.763 210.576 162.741 210.434 167.36 213C171.654 215.386 174.845 216.336 179.6 216.6C187.331 217.03 184.445 219.829 178.16 219.48C172.448 219.163 167.341 210.266 165.28 205.8C162.8 200.426 162.814 193.412 166.96 188.92C172.955 182.426 178.16 170.623 178.16 162.2C178.16 153.059 176.513 154.603 173.12 162.52C169.481 171.01 161.439 177.17 156.88 184.92C155.476 187.307 153.934 195.823 151.52 196.36C149.851 196.731 138.762 187.334 137.84 185.72C135.808 182.164 133.858 178.407 131.76 174.84C130.848 173.289 121.408 164.209 124.24 163.4C129.766 161.821 136.309 183.276 138 187.08C139.488 190.429 145.882 190.882 148.24 193.24C151.613 196.613 154.715 195 147.2 195C143.344 195 137.698 190.538 134.96 187.8C130.317 183.157 130.64 181.557 130.64 174.84C130.64 167.395 134.844 170.665 137.84 166.92C139.794 164.478 146.567 160.076 149.36 158.68C154.299 156.21 153.68 153.266 153.68 148.2C153.68 144.557 155.12 135.131 155.12 143.88C155.12 147.949 151.993 158.607 149.04 161.56C145.558 165.042 140.458 166.302 137.04 169.72C133.967 172.793 127.052 172.951 124.24 169.56C123.442 168.598 115.142 159.501 116.56 157.88C117.085 157.28 118.475 161.686 116.24 163C99.9927 172.557 93.4689 190.634 86.32 206.52C83.6598 212.432 84.189 218.875 81.68 224.52C80.0027 228.294 77.36 232.519 77.36 236.76C77.36 241.109 82.1252 242.112 85.36 243.96C89.7518 246.47 88.88 251.048 88.88 255.48C88.88 261.107 91.6333 279.96 85.28 279.96C80.4344 279.96 75.0899 279.488 83.12 279.96C87.3539 280.209 88.88 286.085 88.88 289.32C88.88 298.523 89.659 304.69 93.92 312.36C96.6973 317.359 98.851 315.65 96.4 320.28C94.5403 323.793 96.08 336.175 96.08 332.2C96.08 327.576 92.8561 319.27 95.76 315.64C98.471 312.251 97.52 305.656 97.52 301.56C97.52 296.415 98.0783 293.367 93.92 290.04C92.3099 288.752 90.8376 288.35 88.88 287.48C87.3504 286.8 85.7436 283.736 84.56 284.92C82.727 286.753 88.0493 297.531 88.88 299.4C90.7976 303.715 97.52 302.856 97.52 308.76C97.52 311.102 98.8011 320.531 96.72 321.72C92.1387 324.338 92.7796 326.407 93.2 318.84C93.4618 314.128 103.59 294.211 107.6 305.24C109.108 309.387 113.587 311.64 117.68 311.64C125.956 311.64 121.215 315.332 125.6 318.84C126.821 319.817 127.239 323.086 128.08 324.6C129.846 327.779 133.223 329.377 134.64 332.92C135.615 335.357 136.573 336.051 136.4 339C136.235 341.804 132.467 339.554 130.96 340.76C125.443 345.173 127.233 341.266 129.2 336.84C131.59 331.461 135.942 330.933 138.96 327.16C142.225 323.079 136.952 319.17 134.96 316.68C131.962 312.933 123.988 314.52 119.84 314.52C114.827 314.52 109.724 314.814 104.72 314.52C103.079 314.424 100.695 305.371 108.32 308.76C115.517 311.959 124.169 316.521 132.08 317.4C139.28 318.2 137.642 322.078 134.24 325.48C129.883 329.837 126.32 335.863 126.32 341.88C126.32 349.446 132.662 341.781 134.32 340.36C142.47 333.375 130.707 317.4 143.6 317.4C146.582 317.4 156.56 315.688 156.56 319.56C156.56 323.241 155.103 330.252 158.32 332.44C159.393 333.17 167.917 341.824 162.96 343.24C158.363 344.553 155.966 328.766 155.2 325.32C153.665 318.41 157.597 317.989 148.4 319.96C146.951 320.27 131.574 324.6 137.12 324.6C142.927 324.6 148.196 323.769 153.68 323.16C158.942 322.575 162.345 318.84 168.08 318.84C170.907 318.84 178.462 317.377 179.52 321.08C180.596 324.847 179.776 329.619 181.36 333.24C181.552 333.679 178.313 325.871 176.72 323.88C172.104 318.11 173.982 323.047 177.84 319.96C183.744 315.236 196.61 311.64 204.08 311.64C208.459 311.64 210.457 335.663 204.8 332.52C201.966 330.945 196.49 326.352 192.88 329.24C187.604 333.461 184.396 328.709 190.4 326.04C199.678 321.916 206.466 315.654 213.04 309.08C219.384 302.736 228.09 302.633 235.76 299C240.026 296.979 244.59 295.647 248.56 293C253.211 289.899 248.445 292.184 247.28 293.64C243.838 297.943 240.419 304.101 236.48 308.04C232.382 312.138 227.158 312.086 222.8 315.96C219.653 318.757 215.632 320.58 211.92 321.64C209.154 322.43 202.601 325.966 200.08 327.8C194.907 331.562 186.564 332.808 180.48 334.68C163.865 339.792 144.627 344.453 127.12 346.12C121.433 346.662 108.837 348.649 104.72 344.76C97.7817 338.207 87.6506 335.27 84.24 325.72C80.4805 315.193 78.8 307.805 78.8 296.6C78.8 291.05 80.24 284.948 80.24 279C80.24 274.215 77.6179 266.312 75.2 261.96C72.4648 257.037 73.5714 251.087 71.92 245.72C69.8738 239.07 68.8939 213.242 73.36 208.28C78.3355 202.752 80.24 203.23 80.24 210.12C80.24 215.078 83.1705 219.799 85.28 224.44C87.3159 228.919 89.1683 233.298 88.88 238.2C88.7883 239.759 86.9087 240.664 86 241.8C83.6228 244.772 86.2941 241.534 88.08 243.32C90.9837 246.224 89.0454 266.85 93.84 265.48C102.534 262.996 109.678 266.456 116.96 272.12C129.175 281.621 141.583 289.943 153.68 299.8C153.74 299.849 180.844 318.396 177.84 321.4C175.274 323.966 168.274 319.886 165.92 318.84C161.345 316.807 156.515 317.4 151.52 317.4C143.294 317.4 133.197 318.84 124.16 318.84C113.058 318.84 107.095 307.615 100.72 301.24C92.346 292.866 83.8555 281.12 84.56 268.44C84.7986 264.146 90.257 261.24 93.92 261.24C100.63 261.24 102.144 263.471 107.6 266.68C112.544 269.588 113.389 271.32 119.92 271.32C124.319 271.32 132.001 271.257 135.28 273.88C137.92 275.992 143.659 275.126 147.2 277.88C152.332 281.872 154.371 287.851 158.72 292.2C160.978 294.458 163.388 300.027 163.76 303C163.985 304.797 166.279 307.827 167.28 309.4C168.373 311.117 169.52 317.115 169.52 315.08C169.52 304.663 162.13 295.234 153.04 290.04C147.717 286.998 143.203 280.765 138.16 277.08C132.345 272.83 129.674 274.447 123.28 271.96C115.133 268.792 105.335 263.187 96.72 262.68C92.364 262.424 109.044 259.004 105.84 255.8C99.5038 249.464 83.4216 249.696 80.32 238.84C78.762 233.387 82.8543 230.023 83.12 225.24C83.4326 219.612 81.6637 212.697 83.2 207.32C84.126 204.079 88.9741 202.652 90.64 199.32C95.4756 189.649 104.112 184.706 111.92 177.72C114.28 175.609 119.943 172.856 122.8 172.04C128.304 170.467 128.902 182.958 129.28 186.36C130.825 200.266 144.852 202.2 157.28 202.2C160.882 202.2 166.747 200.894 169.2 203.96C172.362 207.912 173.862 214.621 176.72 219.16C180.53 225.212 172.652 224.924 169.52 228.84C167.202 231.737 165.215 234.505 162.64 237.08C157.355 242.365 152.24 247.069 152.24 254.76C152.24 263.105 163.338 265.56 170.24 265.56C179.286 265.56 177.933 249.433 179.68 243.32C180.765 239.522 181.631 236.16 183.6 232.44C184.876 230.029 193.138 225.589 189.68 231.64C186.479 237.242 178.435 234.702 175.6 241.08C173.977 244.732 175.28 251.491 175.28 255.48C175.28 262.18 159.929 269.499 157.68 260.28C154.712 248.111 156.56 238.209 156.56 225.96C156.56 221.307 156.503 213.916 162.96 213.72C175.603 213.337 175.865 218.303 165.28 225.8C162.638 227.671 157.264 231.398 153.68 231C150.762 230.676 152.066 216.146 152.88 214.04C153.559 212.283 157.754 206.68 160.08 206.68C161.47 206.68 151.463 209.912 149.84 210.12C137.599 211.689 118.368 215.396 112.56 202.12C110.861 198.237 110.256 194.93 110.48 190.68C110.647 187.513 114.8 188.094 114.8 184.92C114.8 182.419 103.75 177.181 111.2 181.32C122.375 187.528 131.72 192.153 141.36 200.04C143.587 201.862 155.004 212.804 155.12 210.84C155.298 207.808 160.093 203.013 157.2 200.12C155.857 198.777 152.24 200.291 152.24 197.88C152.24 194.649 156.019 195.086 157.68 193.24C158.458 192.376 161.114 182.373 160.56 183.48C156.509 191.582 153.584 203.576 147.12 210.04C144.37 212.79 139.038 189.884 134.96 189.24C124.872 187.647 137.64 183.91 141.36 189.32C143.602 192.582 144.129 195.051 145.12 198.52C145.756 200.745 141.812 195.805 140 195C138.633 194.393 124.926 186.36 130.64 186.36C135.596 186.36 140.915 194.555 142.16 198.6C143.59 203.247 143.159 213.083 146.48 216.6C154.051 224.616 163.76 238.482 163.76 249.72C163.76 256.815 160.88 261.967 160.88 269.08C160.88 274.733 160.88 280.387 160.88 286.04C160.88 293.368 166.26 302.165 170.64 307.64C171.689 308.951 171.099 312.502 168.8 311.48C163.044 308.922 160.245 300.464 156.56 295.96C151.615 289.917 149.548 287.511 142.16 285.4C133.454 282.912 120.003 277.229 115.52 269.16C112.676 264.041 93.9844 261.24 99.84 261.24C119.708 261.24 132.398 271.798 145.68 285.08C150.608 290.008 158.239 286.08 153.68 278.84C147.317 268.735 132.991 270.299 123.12 266.68C118.911 265.137 107.6 254.123 107.6 261.96C107.6 266.269 122.521 263.448 126 265.56C134.89 270.957 140.975 274.823 147.92 282.76C153.454 289.084 161.092 293.57 165.2 300.76C166.894 303.724 170.96 306.348 170.96 310.2C170.96 312.483 171.865 314.448 172.48 316.6C172.956 318.266 174.715 314.115 173.04 312.44C168.572 307.972 162.242 303.318 156.24 301.24C145.786 297.621 136.615 292.316 126.32 287.96C115.271 283.285 95.8067 277.185 90.64 265.56C90.0705 264.279 91.1012 260.332 89.52 259.88C89.1475 259.774 82.9047 258.113 86.8 257C90.6234 255.908 97.2147 259.266 98.64 254.04C98.7246 253.73 98.5245 246.475 97.52 247.48C95.5355 249.464 86.5268 264.783 84.56 263.8C83.2547 263.147 82.0257 258.981 83.92 258.44C87.1471 257.518 89.9407 268.846 90.24 271.24C90.7203 275.082 83.671 285.72 90.32 285.72C93.4057 285.72 100.4 290.496 100.4 293.64C100.4 295.915 98.7156 296.207 97.6 297.88C95.5726 300.921 98.96 290.655 98.96 287C98.96 271.485 92.5614 254.907 85.28 241.8C81.6556 235.276 89.6738 235.168 88.88 231C87.7033 224.822 69.1474 212.653 75.92 205.88C84.3186 197.481 91.76 191.155 91.76 178.36C91.76 169.966 93.2962 163.997 96.56 155.96C100.96 145.125 104.375 125.585 113.04 116.92C115.695 114.265 116.15 124.929 119.76 125.96C125.238 127.525 135.595 129.025 140.72 124.44C144.784 120.804 149.108 114.703 151.52 109.88C152.895 107.13 155.416 102.568 150.8 102.84C148.462 102.978 146.758 109.667 145.04 111.48C141.221 115.511 135.653 117.918 131.36 121.56C125.44 126.583 123.081 132.319 118.4 138.04C115.574 141.494 111.553 141.92 108.24 144.76C101.235 150.764 95.3677 158.801 89.68 166.04C85.7521 171.039 77.7566 186.945 77.36 180.6C76.6362 169.02 78.8 157.609 78.8 146.12C78.8 137.663 89.9623 130.863 96.4 127C104.458 122.165 113.566 114.874 122.72 112.84C128.494 111.557 135.041 93.405 133.44 87.8C132.826 85.6521 123.813 86.7325 122.32 85.24C119.601 82.5212 122.401 72.5395 117.68 70.04C111.586 66.8136 110.48 71.6556 110.48 76.2C110.48 81.612 108.89 73.8899 106.16 71.16C103.011 68.0112 96.5984 70.008 94.64 67.56C88.9103 60.3979 87.2194 68.28 81.68 68.28C74.4923 68.28 72.4042 66.4966 75.28 58.28C77.6341 51.5541 78.4055 45.0629 80.56 38.36C81.5777 35.1938 82.2166 31.6022 83.84 28.68C85.1767 26.2739 88.88 24.1235 88.88 21.48C88.88 18.0951 88.88 18.3001 88.88 21.56C88.88 27.5086 88.6457 33.0933 91.04 38.68C94.7168 47.2592 95.9608 58.8854 107.28 59.64C111.861 59.9454 116.076 61.9418 120.56 62.44C123.652 62.7835 128.51 61.4132 131.36 62.68C135.497 64.5185 133.52 79.2293 133.52 83C133.52 91.4422 137.518 110.99 129.04 115C122.094 118.285 95.5955 134.512 90.32 124.84C83.2189 111.821 83.8445 102.035 84.56 88.44C85.1321 77.5693 83.12 89.0757 83.12 94.12C83.12 100.328 82.0625 108.47 79.52 114.12C78.4151 116.575 74.9877 120.168 74.56 122.52C73.2374 129.794 86.782 139.859 92.88 140.28C104.007 141.047 110.65 138.835 120.4 133.96C131.064 128.628 150.616 139.704 161.2 142.84C165.744 144.186 170.748 142.912 174.64 141.8C187.397 138.155 203.563 159.84 211.2 166.84C215.832 171.086 221.241 172.759 225.68 177.72C231.684 184.43 235.878 190.552 243.28 196.44C246.517 199.015 250.558 200.51 253.76 203C256.888 205.433 257.371 208.694 259.6 211.56C264.353 217.671 267.759 223.817 273.2 229.56C276.793 233.353 273.153 229.513 271.6 227.96C262.983 219.343 255.057 210.268 246.88 201.24C235.611 188.797 224.567 179.816 209.52 172.6C201.972 168.98 193.472 166.541 186.48 161.88C184.615 160.637 162.619 146.793 160.96 152.6C159.968 156.071 160.252 154.508 161.2 153.56C163.919 150.841 176.894 153.545 179.92 154.68C191.831 159.146 206.712 170.162 214.8 179.72C215.398 180.427 221.093 186.035 220.48 186.28C218.201 187.191 213.957 183.826 212.4 182.84C201.242 175.773 189.985 169.246 177.6 164.52C166.772 160.388 154.105 158.335 143.92 152.92C141.109 151.426 129.403 146.815 129.2 143.16C129.109 141.529 129.893 138.53 128.48 137.4C127.3 136.456 123.967 134.52 127.12 134.52C148.202 134.52 169.678 121.288 189.04 136.04C196.612 141.81 204.644 148.602 208.08 157.88C208.704 159.564 218.555 173.315 210.72 165.48C206.996 161.756 204.632 156.184 201.2 152.12C196.134 146.12 189.75 145.892 183.28 142.84C171.685 137.371 160.454 130.2 147.28 130.2C137.418 130.2 122.582 127.107 114.08 133.72C110.968 136.141 98.7188 135.321 99.92 134.52C110.593 127.405 106.359 144.965 109.84 145.96C119.923 148.841 131.405 141.72 141.44 141.72C156.74 141.72 174.333 151.5 186.48 160.12C190.556 163.013 194.645 166.615 198.96 169.08C203.206 171.506 191.593 172.094 190.16 171.72C178.666 168.722 169.14 160.656 157.2 158.36C144.576 155.932 132.089 155.681 119.76 151.8C117.006 150.933 107.552 148.92 107.6 148.92C118.427 148.92 129.253 148.92 140.08 148.92C161.556 148.92 188.069 157.481 206.32 169.32C212.364 173.24 219.04 178.385 222.48 184.92C224.129 188.053 224.982 192.327 227.12 195C229.774 198.317 230.591 202.408 233.6 205.88C238.056 211.021 242.796 215.715 247.28 220.84C253.964 228.479 258.983 236.948 263.44 246.04C267.084 253.474 272.049 260.515 275.36 267.8C276.495 270.298 276.759 273.207 277.84 275.64C279.946 280.378 274.661 277.161 271.28 277.08C268.49 277.014 267.362 277.306 265.28 275.64C262.743 273.61 261.84 263.271 261.84 266.52C261.84 269.049 269.098 282.388 270.96 282.92C271.958 283.205 272.29 287.485 272.88 288.6C273.684 290.119 277.52 291.184 277.52 288.6C277.52 285.546 274.999 281.364 274.72 277.88C274.094 270.055 275.597 262.744 276 255.08C276.58 244.06 277.534 229.915 273.52 219.48C272.164 215.955 267.7 211.258 265.68 207.64C257.485 192.965 244.328 173.933 228.48 167C225.71 165.788 222.541 167.045 219.92 165.88C216.948 164.559 214.669 161.681 211.6 160.76C207.84 159.632 190.018 159 203.52 159C228.473 159 254.046 181.389 264.24 203C269.182 213.477 272.118 225.955 273.12 237.48C274.288 250.912 270.618 260.447 266.32 273.24C264.031 280.054 256.21 300.154 258.88 293.48C260.587 289.211 263.293 285.481 265.2 281.32C270.37 270.04 268.88 257.159 268.88 245.08C268.88 222.643 263.811 204.346 248 187.16C240.669 179.191 229.157 178.189 220.56 171.96C215.234 168.1 208.938 162.264 202.32 160.76C199.181 160.047 188.24 164.587 188.24 161.16C188.24 149.045 207.135 159.648 191.28 145.48C185.182 140.031 179.238 134.367 173.6 128.44C171.676 126.418 168.311 120.587 165.2 120.12C162.53 119.72 155.99 121.891 153.36 122.68C148.747 124.064 144.397 125.615 139.68 126.68C126.756 129.598 113.569 127.062 100.72 129.56C87.9195 132.049 93.3859 137.388 102.48 133.08C117.897 125.777 130.298 125.88 147.12 125.88C160.188 125.88 167.331 126.446 178.8 133C187.076 137.729 192.245 146.673 198.64 153.56C208.821 164.524 193.301 163.178 186.88 157.56C177.645 149.48 163.22 135.98 150.8 134.6C140.637 133.471 131.616 135.185 122.32 137.72C120.246 138.286 103.624 145.444 104.8 149.56C105.21 150.997 114.25 144.984 115.12 144.6C123.374 140.955 131.564 138.84 140.56 138.84C155.528 138.84 164.875 140.336 178.72 145.32C191.947 150.082 205.661 157.701 215.6 167.64C217.985 170.025 222.64 174.652 222.64 178.36C222.64 179.166 214.647 171.007 213.36 169.72C197.377 153.737 175.856 147.864 154.16 144.6C140.553 142.553 127.377 142.148 113.68 141.72C110.18 141.611 104.216 140.108 101.04 138.52C93.2877 134.644 118.373 138.84 127.04 138.84C143.852 138.84 155.967 152.378 169.84 160.76C183.677 169.12 197.221 176.813 210.48 186.36C211.484 187.083 220.378 193.56 216.32 193.56C206.932 193.56 201.167 181.905 194.64 176.44C181.884 165.76 167.892 162.991 152.56 157.88C150.05 157.043 160.325 159.372 161.6 159.72C174.158 163.145 184.945 171.75 193.68 181.08C204.689 192.839 216.095 203.88 226.64 216.12C232.551 222.982 238.186 232.786 244.4 239C245.983 240.583 244.458 234.104 242.96 232.44C235.362 223.998 225.511 218.307 217.84 209.88C214.087 205.757 209.755 201.576 206.32 197.16C203.506 193.541 212.262 196.393 213.6 197.32C225.439 205.516 233.324 218.88 241.84 230.2C251.681 243.281 263.181 254.545 274.64 266.2C275.317 266.888 289.938 284.981 282.16 278.84C269.6 268.924 262.979 254.769 254 241.8C249.592 235.433 245.237 229.036 240.48 222.92C240.311 222.702 235.93 216.852 235.76 218.04C234.72 225.323 245.584 231.209 250 235.16C267.954 251.224 277.235 271.918 283.92 294.2C287.025 304.55 275.015 274.478 271.44 264.28C263.674 242.128 257.628 222.542 243.28 203.96C237.299 196.215 235.736 196.865 226.4 196.36C219.017 195.961 199.205 185.277 206.48 186.6C215.457 188.232 224.409 204.398 229.36 211C235.214 218.806 239.799 230.559 246.56 237.32C249.04 239.8 243.75 230.884 242.08 227.8C236.232 217.003 230.708 206.043 224.72 195.32C219.733 186.39 214.293 180.093 207.28 173.08C201.249 167.049 221.186 182.966 228.32 187.64C239.467 194.943 248.985 204.259 253.6 217.08C256.679 225.632 248.732 218.071 246.32 215.32C235.025 202.437 224.874 187.721 216.24 172.92C211.27 164.4 205.98 166.03 198.32 162.2C188.127 157.103 196.707 156.54 198.24 149.64C198.747 147.36 189.251 141.1 187.44 139.48C183.187 135.674 173.244 136.478 167.76 134.2C153.522 128.286 140.236 121.72 124.32 121.72C123.544 121.72 120.856 126.853 117.76 127.24C111.373 128.038 116.345 127.32 120.08 127.32C132.561 127.32 149.345 117.667 160.88 125.56C172.576 133.562 185.162 140.279 196.8 148.28C202.892 152.468 215.6 164.209 215.6 171.96C215.6 172.836 218.25 171.96 219.92 171.96C225.905 171.96 235.166 179.49 240 182.76C252.056 190.915 263.303 197.859 270.32 210.84C276.05 221.441 281.447 231.064 285.44 242.6C287.778 249.355 289.486 262.116 287.28 269.56C286.856 270.992 280.699 282.752 280.4 277.08C279.908 267.728 281.031 252.699 273.04 246.04C261.966 236.812 254.561 224.521 244.72 214.68C238.147 208.107 250.461 232.367 252.96 241.32C258.126 259.833 263.12 278.46 263.12 297.8C263.12 303.24 262.701 302.22 258 304.44C250.401 308.028 245.685 313.619 239.44 319.16C226.815 330.362 218.092 337.56 201.12 337.56C185.061 337.56 169.913 344.76 153.68 344.76C135.069 344.76 116.346 343.432 101.12 331.72C93.8466 326.125 92.1362 318.599 87.6 311.16C80.6292 299.728 74.8769 291.364 69.52 278.76C62.9576 263.319 64.4 245.088 64.4 228.52C64.4 219.973 64.1559 211.383 64.4 202.84C64.4522 201.015 65.0997 195.714 67.92 196.52C69.8146 197.061 71.7558 208.267 72.32 209.96C76.068 221.204 80.7768 218.068 83.44 209.08C84.0463 207.034 86.1333 200.093 84.24 198.2C82.2064 196.166 74.0526 198.103 73.04 200.28C70.9632 204.745 70.16 212.278 70.16 217.24C70.16 220.844 72.051 211.966 73.04 210.2C73.7045 209.013 80.5436 200.869 78.8 200.76C74.2403 200.475 75.0528 212.375 74.8 214.84C71.4588 247.416 77.1331 279.428 92.48 308.12C97.1934 316.932 100.368 326.36 104.72 335.32C106.315 338.604 107.419 342.539 109.76 345.4C109.858 345.52 112.443 348.335 111.6 348.44C107.708 348.926 103.849 341.188 102.64 339C96.4389 327.779 88.9828 317.144 85.12 304.84C80.635 290.554 75.8497 275.205 72.72 260.6C69.7935 246.943 65.84 234.614 65.84 220.44C65.84 213.818 65.31 207.163 67.28 200.76C68.126 198.01 68.8534 190.663 67.6 197.4C65.8327 206.899 67.28 217.699 67.28 227.32C67.28 241.555 67.0754 255.808 67.36 270.04C67.6544 284.758 67.6625 303.094 76.24 315.96C80.8527 322.879 87.9176 327.824 93.68 333.72C94.3905 334.447 99.9179 342.29 100.32 340.28C101.141 336.174 97.8138 330.182 96.56 326.68C91.4819 312.496 87.2995 298.043 82.4 283.8C75.932 264.998 68.0576 246.727 61.2 228.44C59.9396 225.079 60.08 241.107 60.08 241.8C60.08 260.21 68.4443 275.587 74.32 292.68C76.5183 299.075 78.3377 305.537 81.12 311.72C82.9987 315.895 85.7115 325.744 89.52 328.6C92.9471 331.17 91.4851 316.624 91.44 316.28C89.4515 301.095 80.9734 288.044 76.8 273.56C73.4847 262.054 73.04 251.628 73.04 239.8C73.04 233.635 74.5563 231 68.08 231C62.9484 231 66.2952 255.042 66.72 258.44C69.1874 278.179 82.4889 295.95 93.52 311.96C95.6251 315.015 121.171 351.369 123.12 350.2C130.632 345.693 150.052 349.08 159.2 349.08C174.672 349.08 190.426 348.621 205.52 344.76C220.909 340.823 235.128 333.904 250.08 328.92C252.485 328.118 251.6 324.541 251.6 322.44C251.6 319.609 255.424 313.164 252.08 313.08C242.953 312.852 235.992 317.9 227.92 321.72C217.182 326.801 204.812 327.764 194.48 333.4C182.206 340.095 169.663 345.764 155.44 346.12C143.994 346.406 127.249 349.521 116.24 344.76C114.432 343.978 103.52 340.44 106.8 340.44C124.68 340.44 143.06 336.163 160.72 333.88C183.181 330.976 206.508 331.465 228.72 327.16C237.326 325.492 244.721 324.439 250.88 318.28C251.683 317.477 255.81 313.4 256.56 313.4C259.789 313.4 254.316 319.974 251.6 321.72C236.788 331.242 217.257 336.517 200.56 341.56C180.065 347.75 160.762 346.2 140 346.2C138.484 346.2 133.832 345.27 136.72 342.52C141.109 338.34 155.024 337.949 160.72 337C169.859 335.477 179.136 335.002 188.24 333.24C196.745 331.594 202.753 326.715 210.72 323.8C221.439 319.878 232.35 315.366 242.16 309.48C243.512 308.669 248.133 305.744 249.84 307.64C254.207 312.492 242.521 321.937 240.08 323.64C228.488 331.727 212.159 329.72 198.88 331.96C179.766 335.184 160.539 341.88 141.04 341.88C125.147 341.88 109.253 341.88 93.36 341.88C88.6798 341.88 87.0825 338.607 92.4 337.64C98.4827 336.534 103.938 333.072 110 331.48C130.042 326.217 151.987 327.916 172.56 326.36C175.592 326.131 194.782 327.191 196.72 323.8C197.158 323.034 196.379 321.128 197.2 320.6C200.036 318.777 208.083 320.24 211.2 320.36C227.965 321.005 238.454 322.301 253.84 316.28C257.771 314.742 267.744 312.793 267.44 307.32C267.233 303.598 263.769 307.982 264.88 299.8C265.816 292.909 268.643 277.212 275.36 273.48C277.035 272.55 281.983 269.217 283.84 269.96C284.826 270.355 280.761 280.197 280.4 281.08C278.344 286.105 277.52 289.053 277.52 294.52C277.52 300.643 278.725 282.328 279.68 276.28C280.056 273.897 284.089 259.151 278.32 264.92C276.76 266.48 276.987 273.336 275.28 267.24C268.846 244.263 273.632 217.153 263.92 195.08C262.497 191.846 252.034 193.994 248.72 190.68C245.993 187.953 243.636 181.608 247.92 179.16C250.764 177.535 249.722 176.588 246.96 175.96C236.507 173.584 226.062 172.224 216.24 167.64C210.497 164.96 205.296 163.32 198.96 163.32C197.617 163.32 189.84 164.534 189.84 163.96C189.84 150.974 231.44 174.185 231.44 156.84C231.44 151.29 242.811 149.077 246.96 147.8C251.631 146.363 248.606 152.632 252.72 151.48C257.007 150.28 261.348 148.452 265.52 146.84C276.874 142.453 285.066 137.602 295.44 131C299.001 128.734 313.646 132.256 317.04 133.08C338.706 138.342 345.275 152.493 350.64 172.76C352.826 181.02 353.933 174.825 350.24 169.08C346.682 163.545 340.08 159.799 336.88 154.68C334.567 150.98 330.674 148.102 327.2 145.4C322.295 141.585 318.063 136.09 311.36 134.6C299.738 132.017 302.145 161.305 309.92 164.76C316.438 167.657 322.92 170.629 329.36 173.72C333.209 175.568 338.23 177.339 341.6 179.96C343.062 181.097 350.965 184.92 346.64 184.92C332.09 184.92 325.803 174.124 315.76 165.24C309.241 159.473 303.654 154.502 297.68 148.28C294.575 145.046 288.357 140.698 287.68 135.96C287.335 133.545 287.371 130.373 290.48 130.2C296.565 129.862 297.242 136.611 299.12 141.4C303.847 153.453 307.87 165.92 317.84 174.84C323.936 180.294 324.588 165.372 327.36 162.6C330.075 159.885 334.711 159.175 338 157.24C341.119 155.405 339.44 156.98 339.44 161.56C339.44 169.73 337.056 173.125 330.08 177C319.975 182.614 319.669 171.008 317.12 165.4C311.083 152.119 332.24 149.898 332.24 152.52C332.24 156.544 329.006 168.455 329.36 156.76C329.493 152.371 332.363 154.178 332.24 158.36C332.153 161.331 330.525 163.282 327.92 164.44C321.787 167.166 328.541 151.141 334.32 156.92C338.02 160.62 326.806 175.742 326.48 170.52C326.304 167.711 325.611 162.853 327.36 160.52C327.904 159.795 333.64 157.304 331.52 159C329.308 160.77 328.377 164.575 325.04 164.76C322.226 164.916 318.562 160.358 321.04 157.88C322.777 156.143 329.321 155.334 331.36 156.92C332.909 158.125 333.034 163.251 330.08 159.64C325.85 154.47 326.724 148.722 320.72 145.72C312.417 141.569 286.16 119.527 286.16 138.76C286.16 151.806 301.114 161.793 309.28 171.32C313.666 176.437 321.4 181.483 327.92 183.16C331.392 184.053 335.846 183.68 339.44 183.48C343.445 183.258 341.973 177.573 344.88 175.48C345.976 174.691 350.591 174.002 350.88 175.88C351.66 180.949 349.078 183.147 345.2 185.64C338.855 189.719 331.221 188.416 326.16 183.16C321.658 178.485 319.025 171.742 313.36 168.28C308.667 165.412 300.946 163.546 297.12 159.72C292.865 155.465 290.722 142.592 292 136.84C294.82 124.152 326.797 147.797 330.8 151.8C333.493 154.493 337.291 154.656 339.44 157.88C341.582 161.092 343.181 164.678 345.2 167.96C347.774 172.142 349.095 177.833 348 182.76C347.493 185.039 345.349 186.853 345.2 189.24C345.11 190.687 345.2 183.517 345.2 182.36C345.2 172.246 340.377 165.429 336.56 156.84C333.682 150.365 318.169 143.686 312.08 142.04C308.245 141.004 304.038 142.525 300.24 141.4C295.307 139.938 294.544 140.079 294.8 145.72C295.288 156.459 309.4 159.089 313.52 168.36C316.658 175.42 323.857 175.737 328.72 180.6C332.358 184.238 335.654 187.063 340.08 189.88C341.647 190.877 346.958 190.68 342.32 190.68C329.293 190.68 320.435 178.08 309.84 172.6C296.747 165.828 291.148 161.654 287.28 148.6C285.6 142.929 274.548 128.76 283.36 128.76C297.718 128.76 311.886 134.939 326.8 130.52C338.16 127.154 337.81 129.277 341.68 139.48C345.75 150.21 349.607 160.933 353.84 171.64C362.161 192.686 334.691 208.296 316.72 202.52C302.458 197.936 272.336 195.332 273.2 216.92C273.438 222.874 278.272 214.859 279.2 213.56C284.431 206.236 296.062 201.339 305.04 200.84C311.591 200.476 318.537 201.609 325.04 200.68C328.366 200.205 329.931 197.033 332.96 196.36C336.119 195.658 338.134 195.073 335.6 199.96C332.109 206.693 322.231 219.09 313.84 219.48C307.851 219.759 301.828 219.174 295.84 219.56C288.749 220.017 286.338 226.776 283.36 232.36C282.632 233.724 275.907 245.59 278.96 238.52C283.444 228.136 293.401 214.052 302 206.84C310.483 199.726 322.83 197.05 330.64 189.24C333.086 186.794 334.39 183.225 336.64 180.6C342.13 174.195 346.202 175.513 342.32 165.08C338.837 155.719 335.335 151.704 329.44 144.04C324.608 137.759 316.476 139.516 326.8 142.04C349.212 147.518 345.997 166.846 338 182.84C331.677 195.486 326.985 196.945 316.24 186.2C304.232 174.192 290.969 163.926 277.84 153.24C275.666 151.47 269.655 147.231 270.4 143.88C271.826 137.462 277.782 149.484 278.16 151.16C279.758 158.238 280.596 165.572 281.52 172.76C281.851 175.337 283.01 186.845 286.48 180.6C288.224 177.46 289.897 177.137 286.8 174.04C283.39 170.63 271.359 163.412 268.32 170.84C262.278 185.608 279.403 188.997 281.52 200.76C281.724 201.891 282.907 208.951 280.88 209.32C269.97 211.304 261.888 188.29 258.96 180.76C257.368 176.667 253.553 148.338 243.68 154.92C238.647 158.275 243.215 169.541 240.08 174.52C237.966 177.877 235.587 175.159 232.88 174.84C226.679 174.111 238.069 162.541 238.8 161.88C247.253 154.232 258.213 150.36 269.52 150.36C275.436 150.36 276.347 153.476 277.84 159C278.973 163.192 281.082 167.075 284.08 161.08C286.754 155.733 281.015 141.745 285.04 137.72C288.213 134.547 289.665 147.157 289.76 147.64C291.511 156.59 292.652 168.769 300.64 174.76C308.377 180.563 320.882 182.674 329.84 185.72C338.341 188.61 348.099 189.24 357.04 189.24C359.385 189.24 362.894 189.872 365.04 188.6C366.456 187.761 366.536 186.027 364.64 187.08C361.464 188.844 356.77 190.68 353.12 190.68C344.913 190.68 339.516 183.74 340.96 175.8C341.392 173.422 352.4 185.906 352.4 177.72C352.4 172.285 342.32 154.597 342.32 164.76C342.32 170.155 345.397 171.269 348.08 175.16C351.033 179.442 351.316 183.556 352.72 188.12C357.096 202.342 355.498 182.232 355.2 177.32C354.979 173.667 349.164 168.727 346.96 164.76C341.049 154.121 323.748 151.341 314.16 145.24C303.259 138.303 299.596 131.64 286.16 131.64C280.287 131.64 276.493 132.644 270.96 134.2C267.519 135.168 278.288 134.373 279.44 134.2C293.798 132.046 306.05 130.234 319.2 139C321.143 140.295 330.855 147.585 327.28 151.16C322.038 156.402 298.071 147.322 292.4 146.68C288.791 146.271 255.633 143.389 259.92 153.8C262.447 159.938 272.437 160.44 277.6 160.44C296.407 160.44 299.12 172.692 299.12 189.24C299.12 192.2 296.812 192.32 300.32 189.48C309.541 182.015 315.499 178.507 327.2 177.64C330.664 177.383 349.257 174.993 349.52 170.52C349.839 165.098 344.021 156.61 342.32 151.08C341.135 147.229 339.236 143.677 337.28 140.2C335.127 136.372 334.771 127.893 331.36 125.24C327.023 121.867 316.878 126.312 312.4 127.32C304.652 129.063 296.676 129.778 289.04 131.96C287.665 132.353 283.44 134.814 283.44 136.68C283.44 138.071 296.14 132.653 297.28 132.36C315.244 127.741 327.031 132.393 336.24 148.6C340.514 156.122 340.247 164.141 343.04 171.96C344.98 177.393 341.82 189.659 339.12 179.16C338.308 176.003 339.582 158.654 337.12 157.56C319.727 149.83 296.476 146.482 277.52 147.48C269.608 147.896 260.965 155.279 253.52 157.88C246.792 160.231 241.045 161.88 234 161.88C226.915 161.88 224.002 157.626 218.88 152.76C215.753 149.789 217.416 144.956 216.96 141.08C216.613 138.129 214.16 139.283 214.16 135.96C214.16 132.088 211.351 132.873 208.4 131.32C205.776 129.939 205.52 127.791 205.52 125.16C205.52 122.674 202.189 121.109 200.48 119.4C195.025 113.945 192.93 112.92 185.36 112.92C180.947 112.92 177.214 114.36 172.4 114.36C167.62 114.36 166.109 107.122 168.88 103.56C175.235 95.3896 184.876 99.895 185.36 108.6C185.45 110.228 191.388 116.868 192.88 118.36C199.687 125.167 204.927 128.76 215.6 128.76C220.918 128.76 222.358 135.565 217.76 138.12C213.821 140.308 205.598 139.694 204.08 135.32C203.134 132.593 201.858 128.256 202.72 125.24C203.164 123.687 209.799 124.139 208.88 125.32C204.903 130.433 199.468 131.822 195.44 127.32C189.344 120.506 187.584 102.426 199.04 99.88C206.153 98.2994 192.562 99.3492 191.44 105.24C190.36 110.91 189.921 120.846 191.2 126.6C192.512 132.502 199.047 133.639 204.08 133.08C208.275 132.614 210.475 124.059 214.88 123.08C221.627 121.581 220.183 125.615 213.04 125.88C208.215 126.059 207.919 134.867 203.36 135.88C197.845 137.106 210.069 141.876 212.72 141.72C216.74 141.484 215.975 133.254 214.16 131.64C212.34 130.023 207.266 125.88 204.96 125.88C199.844 125.88 217.529 122.982 220.24 127.32C221.117 128.724 228.575 139.041 223.36 140.2C220.17 140.909 207.57 144.937 205.2 142.04C203.575 140.054 203.048 134.341 202.72 131.72C202.061 126.444 209.01 125.88 212.72 125.88C214.462 125.88 221.201 127.149 221.36 124.44C221.511 121.867 223.25 121.56 222.8 121.56C217.179 121.56 208.237 123.89 203.36 126.6C195.5 130.967 191.605 115.521 188.96 110.76C185.379 104.315 192.983 102.794 195.12 98.52C199.656 89.4483 186.076 99.5447 184.64 100.76C180.709 104.086 174.248 105.222 172.08 110.04C169.073 116.721 183.26 123.342 186.48 119.8C191.759 113.994 186.829 104.764 196.08 101.4C201.328 99.4917 206.64 98.1963 206.96 92.76C207.22 88.3414 211.28 83.9544 211.28 79.08C211.28 72.3078 208.028 68.0346 206.88 61.72C205.698 55.2185 204.08 48.9461 204.08 42.36C204.08 25.3823 204.08 45.6719 204.08 52.52C204.08 62.8158 204.858 72.8111 202.32 82.68C201.28 86.723 199.13 90.8229 198.4 94.84C197.721 98.5734 200.156 105.452 197.6 108.52C195.086 111.537 182.25 130.2 193.28 130.2C202.65 130.2 219.21 131.892 222.48 120.12C225.172 110.428 228.183 104.066 233.6 95.64C242.536 81.7389 252.146 68.3034 260.56 53.88C262.07 51.2915 260.143 59.9243 259.36 61.16C254.249 69.2299 247.755 75.8204 242.96 84.04C238.494 91.6954 234.471 98.0256 231.44 106.36C230.287 109.531 221.736 116.659 223.12 120.12C224.835 124.408 230 130.009 230 134.52C230 137.824 228.841 150.089 224.24 150.36C214.156 150.953 210.309 142.937 209.84 133.08C209.479 125.506 202.22 131.986 199.92 127.96C197.469 123.671 203.315 122.382 206.48 121.88C216.799 120.242 221.601 123.131 221.36 134.2C221.24 139.729 218.48 144.437 218.48 150.36C218.48 151.619 217.811 162.319 218.56 158.2C220.338 148.421 232.394 143.041 240.08 138.52C245.759 135.179 230.613 128.207 230 126.52C229.214 124.358 227.12 120.96 227.12 118.68C227.12 117.855 233.346 130.508 234 132.76C234.865 135.739 243.55 156.367 235.76 157.48C227.232 158.698 220.7 147.6 214.16 143.24C210.657 140.905 207.811 138.416 204.4 135.96C200.68 133.282 204.747 133.083 206.96 136.28C209.67 140.194 213.27 143.155 217.68 145.16C220.081 146.251 223.21 142.074 225.68 141.8C231.778 141.122 243.883 134.585 239.76 125.88C237.813 121.771 228.355 117.404 227.76 113.24C227.406 110.762 231.83 116.19 233.6 117.96C236.568 120.929 239.389 124.808 240.8 128.76C243.803 137.169 243.594 140.319 237.2 146.04C232.521 150.227 222.126 143.953 219.28 139.48C216.383 134.927 214.406 131.086 217.04 125.16C220.863 116.557 202.929 134.589 202.64 135.96C202.107 138.491 210.091 137.4 211.2 137.4C217.485 137.4 217.04 136.084 217.04 130.04C217.04 109.995 212.332 136.76 209.84 136.76C206.152 136.76 202.806 120.275 197.6 124.44C190.871 129.823 191.299 124.843 188.56 118.68C187.604 116.529 190.584 113.186 191.04 115.24C191.953 119.349 191.12 124.494 191.12 128.68C191.12 130.65 190.159 134.411 192.88 134.52C195.918 134.642 205.04 134.52 202 134.52C192.872 134.52 194 127.38 194 119.8C194 113.793 197.81 109.723 191.84 105.08C188.164 102.221 182.809 102.685 182.48 108.6C182.166 114.261 183.71 118.63 187.44 122.36C191.81 126.73 190.176 116.945 188.56 114.36C185.809 109.959 187.539 125.72 186 125.72C179.251 125.72 173.84 112.477 173.84 107.16C173.84 100.447 174.856 93.6962 180.4 89.16C184.248 86.0119 193.84 83.4721 193.84 91.96C193.84 93.522 185.995 92.7383 185.04 92.76C179.864 92.8776 173.09 94.53 169.52 98.52C163.6 105.136 170.644 111.105 172.4 103.64C174.294 95.5888 180.491 91.32 188.24 91.32C192.822 91.32 206.262 94.2 201.68 94.2C191.519 94.2 182.248 100.192 175.28 107.16C174.108 108.332 169.624 111.48 173.28 111.48C175.708 111.48 184.075 112.8 185.92 111.16C190.163 107.389 186.052 100.144 181.52 99.96C176.15 99.7423 171.685 101.103 166.64 101.4C159.284 101.833 155.439 105.54 152.24 94.52C150.361 88.0467 150.104 84.2148 154.24 79.16C156.103 76.8836 155.1 73.006 153.04 71.24C151.464 69.8892 152.326 72.4123 150.8 74.04C148.948 76.0156 154.374 66.9923 154.48 65.72C154.664 63.5079 150.373 63.9067 148.64 62.52C147.272 61.4257 148.437 57.6523 149.6 63.08C151.424 71.5906 156.376 79.1143 158 87.64C159.089 93.3569 159.623 99.154 162.4 104.36C169.041 116.812 179.864 122.991 190.48 132.12C202.363 142.34 208.584 156.151 222.16 164.84C230.599 170.241 239.771 172.809 249.52 174.84C262.334 177.51 263.128 164.666 266.96 155.64C269.463 149.745 275.237 143.041 276.32 136.76C277.133 132.044 270.89 128.509 267.76 126.2C261.738 121.757 254.833 118.589 249.36 113.56C245.702 110.198 242.299 109.245 239.36 105C236.149 100.361 233.965 93.3253 232.96 87.8C231.765 81.2253 246.717 70.5299 251.6 67.96C259.035 64.0468 268.538 64.7315 276.72 66.2C282.376 67.2151 301.883 76.92 286.48 76.92C273.574 76.92 248.256 72.2479 240.88 87C237.17 94.4202 230.199 108.101 222.8 111.8C219.631 113.384 212.603 114.36 209.12 114.36C201.839 114.36 195.911 117.87 194.08 107.8C193.629 105.319 192.993 101.033 191.12 99.16C187.513 95.5534 191.712 109.395 192.88 114.36C194.818 122.596 199.943 120.12 207.76 120.12C210.33 120.12 228.972 117.267 219.12 119.8C205.846 123.213 199.223 120.498 197.04 107.4C195.721 99.4869 198.32 91.9473 198.32 84.12C198.32 66.6294 185.622 61.08 170.24 61.08C165.689 61.08 162.684 67.0971 158 67.96C150.205 69.3959 145.272 59.9125 138.48 58.84C137.364 58.6638 139.109 60.1435 139.2 60.28C140.666 62.4798 139.028 54.8756 138 52.44C134.991 45.3137 122.423 22.9769 113.36 22.2C110.817 21.982 106.185 20.2156 109.12 23.64C114.796 30.2622 126.07 30.84 134.16 30.84C141.28 30.84 149.692 29.6743 156.56 31.8C165.229 34.4834 170.99 42.1128 178 47.32C184.936 52.4722 193.741 54.912 200.4 60.36C203.767 63.115 203.77 67.8096 206.32 70.36C209.743 73.7826 216.555 72.528 220.72 72.92C229.223 73.7203 237.239 74.6197 245.52 76.6C263.612 80.9263 272.678 102.584 290.56 107.8C300.989 110.842 312.614 104 323.12 107.8C340.406 114.052 349.478 121.359 355.28 138.04C359.798 151.028 363.92 164.121 363.92 178.04C363.92 193.957 361.823 209.369 355.6 224.12C348.086 241.932 337.66 251.811 326.72 267.4C319.417 277.807 310.016 286.737 301.68 296.44C292.889 306.672 285.351 317.985 275.92 327.64C270.02 333.68 262.891 337.238 257.04 342.84C248.873 350.659 243.656 357.677 232.32 361.24C222.443 364.344 210 363.903 210 350.6C210 337.865 228.456 331.537 236.56 324.12C256.189 306.154 268.707 282.373 287.6 263.48C295.339 255.741 303.049 249.395 312.72 244.12C316.597 242.005 331.563 235.798 335.68 239C341.905 243.841 341.062 240.752 341.6 232.04C342.354 219.822 343.875 206.178 341.68 194.04C340.745 188.87 338.62 190.965 336.48 193.64C330.631 200.951 325.334 209.032 317.84 214.84C309.731 221.124 302.495 226.864 296.24 235.32C281.839 254.788 287.083 281.317 286.08 303.88C285.467 317.672 282.004 318.748 269.52 317.72C259.281 316.877 252.986 325.188 244.72 330.04C242.199 331.519 233.439 332.444 232.96 335.56C232.235 340.27 234.534 342.274 238.72 343.32C245.368 344.982 249.762 347.1 256.72 344.44C270.061 339.339 280.352 320.55 288.72 310.2C296.811 300.192 307.669 285.052 310.56 272.04C311.236 268.997 309.841 267 306.64 267C298.628 267 296.164 270.246 290.16 262.04C288.466 259.725 285.432 252.037 282.64 250.84C282.223 250.661 280.328 262.281 280.08 263.16C276.952 274.219 271.249 285.581 267.12 296.44C263.248 306.622 254.909 313.503 250.08 323.16C245.912 331.497 239.837 338.322 231.44 342.52C221.654 347.413 207.96 343.384 197.52 343.32C187.77 343.261 177.824 343.929 168.08 343.32C165.692 343.171 176.614 338.95 176.72 338.92C194.258 333.997 214.283 331.424 232.48 330.44C235.222 330.292 245.43 328.088 244.4 333.24C243.081 339.833 231.948 341.013 226.96 341.56C213.389 343.047 199.6 340.44 186 340.44C174.901 340.44 163.981 341.256 152.96 342.6C135.425 344.738 113.329 348.041 96.24 342.2C83.1676 337.732 77.0508 325.011 69.76 314.2C62.9888 304.16 57.7303 293.84 55.68 281.88C51.3411 256.57 57.4263 232.481 55.68 207.16C54.768 193.936 55.5936 176.693 50.32 165.56C48.2665 161.225 46.067 155.897 44.48 151.4C42.8176 146.69 43.6299 141.57 42.08 136.92C40.0841 130.932 41.0399 123.39 40.24 117.08C39.6742 112.616 38.48 108.462 38.48 103.96C38.48 96.3927 47.12 94.1146 47.12 86.28C47.12 83.6022 47.4989 80.6359 46.8 78.04C45.2878 72.4232 50.9105 82.1788 51.76 83.64C56.0379 90.9979 64.4 105.475 64.4 113.72C64.4 122.069 54.6061 127.586 60.08 136.28C64.3263 143.024 60.3347 135.952 58.64 133.24C52.2899 123.08 49.5356 111.191 44.24 100.6C39.5018 91.1236 34.16 86.392 34.16 74.76C34.16 58.4768 36.4488 47.4082 53.2 40.28C62.9973 36.1109 73.6554 28.0685 84.88 31.64C104.448 37.8661 128.931 39.48 149.44 39.48C155.938 39.48 167.134 37.2436 172.72 41.56C180.862 47.8513 182.223 59.5327 187.92 67.64C191.499 72.7336 200.967 85.56 207.76 85.56C216.193 85.56 234.286 81.4204 238.64 91C240.985 96.1594 241.313 103.223 241.52 93.72C241.656 87.441 243.23 78.7065 249.36 75.48C264.334 67.599 281.319 63.8446 295.36 53.88C303.275 48.2626 304.617 41.0169 306 31.8C307.112 24.387 305.298 39.2222 304.88 40.92C302.54 50.4192 300.206 53.5453 291.92 58.28C281.249 64.378 273.275 74.1665 264.56 82.6C248.63 98.0162 239.595 105.206 219.28 97.08C210.655 93.63 201.949 90.2201 194.24 84.92C191.028 82.7116 222.11 78.6874 225.04 78.52C232.358 78.1018 241.869 80.2475 248.72 76.92C258.569 72.136 268.256 64.9543 276.08 57.4C284.271 49.491 292.657 42.4615 301.92 35.88C302.516 35.4568 318.251 20.92 314.08 20.92C307.192 20.92 301.814 38.6548 297.12 42.44C293.754 45.1544 288.156 45.9618 284.24 47.64C274.827 51.6743 266.213 57.1396 257.12 61.8C246.468 67.2593 232.657 77.3933 220.24 78.04C203.815 78.8955 189.886 63.4263 173.52 61.4C160.746 59.8185 148.036 60.4344 135.6 56.68C124.98 53.4741 115.277 46.5392 104.64 43.88C95.1619 41.5105 80.6018 38.7635 71.92 44.44C65.479 48.6514 58.4428 59.1188 55.6 65.88C51.3975 75.8751 50.2862 88.1703 47.84 98.68C44.9468 111.11 41.6889 123.775 41.36 136.6C40.7604 159.983 41.36 183.448 41.36 206.84C41.36 220.849 42.7914 234.871 45.2 248.68C47.3945 261.262 51.902 273.292 54 285.88C54.7884 290.611 57.9073 301.517 54.16 305.8C52.423 307.785 49.9761 308.534 47.68 309.64C40.4959 313.099 34.95 319.588 29.36 325.08C21.2915 333.007 8.30919 340.794 3.6 351.48C-0.40866 360.577 0.258477 356.616 7.04 356.36C21.3026 355.822 32.5777 358.982 42.96 348.2C48.0726 342.891 60.015 337.706 62.96 331.08C66.1033 324.008 54.0767 321.032 48.96 320.52C45.2533 320.149 46.865 338.01 46.48 340.28C43.7789 356.202 30.9132 352.823 19.76 359.16C14.719 362.024 5.23581 372.838 7.68 361.16C10.7367 346.556 31.6226 337.166 44.72 334.28C57.6173 331.438 59.5152 334.942 66.16 343.96C70.5803 349.959 76.9831 351.519 84.24 350.2C111.099 345.316 137.366 341.304 164.8 340.52C173.868 340.261 188.737 337.616 196.56 343.32C205.385 349.755 210.324 357.351 221.52 359.8C230.871 361.846 241.666 366.794 242.88 377.72C243.721 385.292 209.587 383.607 203.68 383.4C192.739 383.016 184.959 375.804 174.8 373.24C169.412 371.88 159.461 372.292 155.68 367.48C148.985 358.959 180.814 348.828 184.4 347.48C199.405 341.841 215.1 338.003 231.04 336.28C235.44 335.804 231.739 337.828 230 338.68C218.659 344.239 205.479 344.885 194 350.52C182.148 356.338 170.085 365.613 156.96 368.36C144.037 371.065 125.553 370.792 112.72 367.64C105.668 365.908 98.8011 363.225 91.84 361.16C82.5611 358.407 68.622 356.781 61.04 350.2C56.1572 345.962 59.0766 339.769 62.32 336.12C64.6656 333.481 50.32 331.359 50.32 329.72C50.32 329.43 58.564 331.645 59.12 331.8C64.5566 333.315 70.1397 333.784 75.6 335.24C97.618 341.111 118.12 354.243 140.72 357.72C141.329 357.814 148.791 359.373 148.72 359.48C144.211 366.243 114.254 349.564 111.92 348.36C79.58 331.679 63.8165 308.167 51.76 275.16C45.6088 258.32 37.5389 242.88 30.96 226.36C19.9013 198.59 19.76 173.324 19.76 143.48C19.76 140.052 19.5532 136.576 20.48 133.24C21.7191 128.779 27.6285 142.041 28.24 143.16C32.2714 150.54 38.3152 158.108 38.48 166.84C38.5556 170.848 37.9512 185.011 38.8 171.96C39.0268 168.473 43.0781 148.827 38.48 150.36" stroke="#FF0000" stroke-width="1.5" stroke-linecap="round" stroke-linejoin="round"/>
</svg>
