<svg width="328" height="494" viewBox="0 0 328 494" fill="none" xmlns="http://www.w3.org/2000/svg">
<path d="M321.592 257.543C316.785 251.848 311.822 245.612 307.473 240.581C303.655 236.163 305.37 243.775 305.37 246.42C305.37 253.241 305.37 276.301 305.37 273.811C305.37 269.509 297.258 253.321 297.258 266.303C297.258 278.297 287.994 274.481 282.388 283.822C278.255 290.707 267.547 297.586 281.036 297.586C297.083 297.586 297.258 297.955 297.258 313.159C297.258 335.399 291.851 355.596 291.851 377.673C291.851 377.891 279.472 401.77 263.461 405.063C253.077 407.2 241.399 403.206 231.016 405.342C221.107 407.38 211.586 415.213 201.275 415.213C168.846 415.213 134.384 423.263 103.188 413.267C78.7862 405.448 68.1524 391.776 57.2234 372.667C53.4129 366.005 45.8075 361.497 45.8075 353.758C45.8075 336.416 48.5113 319.612 48.5113 302.453C48.5113 289.478 52.784 280.068 36.3443 280.068C22.2136 280.068 22.1262 280.305 18.6195 268.944C16.4126 261.795 13.3622 253.181 13.3622 245.03C13.3622 234.246 16.5906 226.746 2.54711 227.511C-2.94624 227.81 7.95466 273.123 7.95466 280.068C7.95466 300.391 4.10841 325.972 12.1605 345.138C16.2024 354.758 19.3632 365.132 22.0744 375.17C24.1459 382.84 31.0498 390.641 32.1384 397.694C33.6595 407.55 40.6618 414.427 42.9535 423.973C45.3906 434.124 52.6641 445.384 53.9188 455.256C54.9051 463.017 78.7463 452.266 84.2612 450.807C101.438 446.265 114.692 450.379 124.818 462.765C136.043 476.494 152.865 492.797 172.885 492.797C182.32 492.797 191.016 494.343 198.571 488.904C208.208 481.966 213.761 472.038 222.905 465.267C226.944 462.276 227.312 456.043 230.265 453.31C235.231 448.713 245.126 445.208 250.994 440.379C262.525 430.892 279.997 418.915 283.589 403.951C287.67 386.953 288.143 368.835 297.859 352.646C303.732 342.862 317.392 337.586 318.889 325.116C320.121 314.853 324.296 306.006 324.296 295.084C324.296 277.055 327 261.234 327 243.778C327 229.522 321.592 251.13 321.592 256.431C321.592 268.898 321.592 281.365 321.592 293.832C321.592 304.989 324.271 310.1 310.777 310.1C300.951 310.1 297.258 289.652 297.258 307.041C297.258 327.088 303.912 346.923 295.156 365.159C290.44 374.979 286.443 390.775 286.443 401.448C286.443 412.188 277.133 412.705 272.925 421.47C268.062 431.596 257.181 430.23 247.239 430.23C232.558 430.23 234.28 438.144 222.905 443.994C219.429 445.782 191.959 451.767 197.82 440.24C201.486 433.028 222.149 435.235 229.063 435.235C242.304 435.235 252.576 431.488 264.813 430.23C272.164 429.473 280.693 413.882 272.925 409.652C262.45 403.949 254.232 402.7 241.831 402.7C234.377 402.7 228.412 413.637 222.905 417.716C216.599 422.385 213.982 430.623 206.532 432.593C193.597 436.014 185.997 446.613 174.387 452.754C156.946 461.979 131.287 465.274 112.801 453.866C90.4072 440.047 60.5299 414.163 32.2886 412.711C11.0698 411.619 33.478 414.447 43.2539 415.352C63.8621 417.26 86.0509 418.186 104.089 427.727C114.154 433.051 114.797 443.461 125.569 449C143.357 458.147 167.292 455.256 186.704 455.256C199.671 455.256 218.849 454.798 218.849 440.24C218.849 426.888 217.051 425.224 202.626 425.224C180.095 425.224 157.563 425.224 135.032 425.224C116.058 425.224 85.9112 418.095 75.549 401.309C69.4341 391.404 63.1202 380.435 55.2707 371.555C51.1505 366.894 47.4896 361.199 45.2067 355.705C43.347 351.229 36.5244 348.224 35.1426 343.747C32.2286 334.307 34.5708 323.889 31.6878 314.549C30.3442 310.196 25.4222 282.332 37.0953 293.137C44.012 299.54 41.4813 314.209 49.1121 322.057C55.966 329.106 67.0245 322.613 75.549 322.613C84.3848 322.613 95.3249 324.246 103.939 322.474C116.412 319.909 112.687 306.892 120.011 304.956C123.318 304.081 126.454 301.087 129.624 299.533C135.066 296.867 137.946 301.936 133.68 305.095C131.742 306.53 125.246 321.158 124.367 324.004C122.567 329.836 117.907 340.38 112.801 344.582C110.308 346.633 107.739 335.939 106.642 335.127C102.661 332.178 99.7044 332.624 94.4754 332.624C83.959 332.624 82.0254 322.613 72.8452 322.613C64.4357 322.613 53.8115 321.124 47.9104 315.662C39.1016 307.508 51.3398 302.852 56.6226 313.854C60.867 322.694 70.7122 322.613 79.6047 322.613C87.0178 322.613 98.8822 314.476 106.492 312.464C111.235 311.209 113.147 306.598 113.402 302.592C113.698 297.927 120.502 298.985 121.363 296.196C122.3 293.162 130.317 272.682 132.328 287.576C133.343 295.088 143.218 301.575 135.032 310.1C130.919 314.383 125.891 329.736 118.809 330.122C115.057 330.326 98.3809 322.391 98.3809 320.111C98.3809 316.504 121.47 312.027 124.217 308.849C127.906 304.58 129.624 307.49 129.624 300.089C129.624 295.501 129.624 290.913 129.624 286.324C129.624 274.822 134.989 270.265 140.44 261.436C144.811 254.356 143.143 244.778 143.143 236.27C143.143 231.587 127.676 222.506 140.44 222.506C146.697 222.506 144.952 226.216 149.903 228.762C155.742 231.765 146.343 230.014 143.143 230.014C126.242 230.014 140.545 227.421 148.551 223.062C153.464 220.387 170.915 216.097 174.988 222.506C176.579 225.009 189.108 245.545 189.108 236.27C189.108 228.215 186.995 220.003 176.941 220.003C167.321 220.003 188.995 257.369 179.494 266.164C168.037 276.768 179.223 256.688 181.597 252.538C183.124 249.868 188.713 245.238 185.052 242.527C181.137 239.628 182.991 235.475 180.395 233.072C174.634 227.739 165.306 227.905 158.765 223.062C152.269 218.251 143.143 209.619 143.143 220.003C143.143 239.965 139.689 255.039 135.182 273.811C133.099 282.49 137.515 292.669 134.882 301.201C133.784 304.758 125.378 299.593 135.032 300.089C138.744 300.28 146.023 301.745 149.753 302.731C165.069 306.782 180.078 314.983 194.515 322.057C203.998 326.704 196.354 340.723 195.116 339.576C190.082 334.917 196.909 318.839 193.914 312.603C193.75 312.261 185.719 290.42 183.85 296.474C181.994 302.486 185.853 320.924 195.867 313.715C207.851 305.087 203.343 312.889 214.793 315.244C224.816 317.306 233.916 317.608 244.535 317.608C248.577 317.608 254.013 318.498 257.904 317.469C260.164 316.871 265.656 312.831 264.212 314.549C261.811 317.407 258.703 320.484 256.702 323.726C255.029 326.436 248.201 324.904 245.286 327.063C231.273 337.439 205.245 324.467 191.21 334.571C189.586 335.74 195.928 329.009 199.923 327.063C203.375 325.381 211.019 321.662 213.441 318.859C221.423 309.625 226.961 329.586 228.462 329.983C239.346 332.861 241.25 319.22 245.887 313.854C249.055 310.188 263.332 311.698 268.869 307.597C272.574 304.853 271.085 287.263 268.118 284.517C262.891 279.679 255.642 277.696 250.693 273.116C237.417 260.827 216.394 268.842 202.626 274.506C194.509 277.845 188.045 280.709 179.795 285.073C175.877 287.145 195.622 280.068 198.571 280.068C208.699 280.068 214.342 285.073 222.905 285.073C231.628 285.073 240.1 284.635 245.887 291.33C250.005 296.094 232.834 296.947 226.96 297.586C218.863 298.468 213.065 301.865 205.931 294.528C186.28 274.317 243.871 278.04 232.969 288.132C222.687 297.649 227.165 286.088 226.96 286.324C224.802 288.822 206.149 285.073 201.275 285.073C181.878 285.073 174.311 267.793 170.031 253.928C168.636 249.409 169.881 234.047 166.876 230.57C164.046 227.295 150.58 219.237 146.448 223.062C142.673 226.556 137.736 239.675 137.736 245.03C137.736 249.618 137.736 254.206 137.736 258.795C137.736 264.646 140 265.756 139.839 265.608C133.055 259.328 128.309 279.879 128.122 279.929C124.941 280.77 121.824 285.073 118.809 285.073C112.475 285.073 111.529 278.709 106.642 277.704C103.046 276.964 79.1272 279.112 78.403 281.458C75.9804 289.307 82.0884 297.586 90.4198 297.586C93.4081 297.586 119.137 299.002 110.097 290.635C107.114 287.873 90.4597 300.191 101.986 289.522C109.634 282.443 95.0347 276.273 94.4754 285.073C94.2826 288.107 88.1578 292.581 95.8273 292.581C100.655 292.581 104.453 291.961 99.2821 288.132C93.9368 284.174 93.0657 290.271 91.1708 292.025C88.79 294.229 81.9035 288.712 79.7549 287.576C72.1056 283.53 61.7585 285.073 52.5669 285.073C36.2337 285.073 21.4735 268.187 21.4735 253.789C21.4735 250.949 19.9591 232.227 18.1689 230.57C15.4448 228.048 2.90053 232.238 6.75298 232.238C10.7258 232.238 10.6584 222.162 10.6584 220.003C10.6584 201.679 7.43493 179.165 15.4651 162.441C18.6982 155.707 22.8621 149.774 24.3275 143.671C25.5904 138.41 32.2886 135.026 32.2886 142.419C32.2886 147.007 32.2886 151.596 32.2886 156.184C32.2886 176.07 24.1773 196.049 24.1773 216.249C24.1773 228.6 24.1773 206.257 24.1773 202.484C24.1773 191.475 31.8756 182.115 37.0953 172.452C47.951 152.355 60.8977 133.392 71.6436 113.499C74.4216 108.356 76.2486 89.845 79.6047 87.3598C83.3125 84.6141 78.8373 78.5497 81.5574 75.4025C83.3863 73.2863 88.1027 71.0908 88.9177 68.4505C91.2786 60.8019 97.662 53.8864 100.033 46.2043C103.622 34.5771 108.652 28.6369 117.458 18.6746C124.186 11.0626 132.401 4.77076 143.143 4.77076C150.134 4.77076 165.831 2.13486 170.782 6.7173C175.988 11.5361 172.458 25.5865 172.885 32.3004C173.418 40.6848 205.232 29.9274 208.034 29.7977C219.699 29.2578 203.025 20.8423 198.571 19.926C191.04 18.377 183.702 12.0019 176.941 8.52476C168.707 4.29064 152.247 7.27346 142.993 7.27346C132.22 7.27346 120.117 0.779516 111.9 8.38575C105.123 14.6586 99.1085 25.8552 116.106 19.2308C129.832 13.881 142.947 7.90237 156.662 2.82417C176.284 -4.44091 195.079 11.6306 208.034 22.2896C220.341 32.4157 233.653 37.4449 241.831 51.0707C250.794 66.0048 259.947 81.0398 268.719 96.1192C276.22 109.014 283.74 110.952 283.74 127.403C283.74 139.647 282.741 146.152 294.555 152.986C302.26 157.444 313.481 163.586 313.481 172.452C313.481 182.87 315.579 192.382 316.185 202.484C316.405 206.148 327.611 222.178 321.592 222.506C300.268 223.667 297.787 201.208 287.795 190.109C281.274 182.866 281.036 175.6 281.036 166.195C281.036 154.933 275.991 143.631 270.371 133.66C256.047 108.247 251.294 84.9458 251.294 57.3274C251.294 34.7365 228.309 32.3004 208.034 32.3004C202.626 32.3004 197.219 32.3004 191.811 32.3004C189.369 32.3004 181.398 34.227 181.146 33.4127C177.148 20.4575 153.219 4.77076 139.088 4.77076C121.047 4.77076 121.319 52.6453 114.754 63.5841C111.209 69.4904 110.312 77.1142 104.69 81.7982C96.4111 88.6949 87.6919 90.1488 80.9566 99.3171C67.6685 117.405 57.9934 130.22 59.3264 152.43C60.4978 171.947 100.277 155.58 109.196 166.195C122.31 181.802 138.456 183.306 158.014 187.329C176.271 191.084 196.66 185.626 210.137 174.398C215.205 170.176 224.257 167.893 224.257 159.938C224.257 150.815 224.835 141.513 224.257 132.408C223.335 117.904 199.185 110.622 194.665 95.9802C188.5 76.0081 172.887 77.349 152.607 77.349C141.885 77.349 136.044 77.3277 126.921 81.7982C118.259 86.0428 119.261 94.3455 114.003 100.429C103.867 112.157 96.183 129.245 97.1792 144.922C97.51 150.127 106.312 129.65 109.346 127.403C113.968 123.981 121.188 114.64 124.217 111.135C127.332 107.532 132.017 114.782 132.328 109.884C132.638 105.003 133.64 102.506 134.882 98.4829C137.65 89.5135 136.133 110.712 141.942 112.248C150.993 114.641 157.696 113.653 165.374 119.339C173.755 125.545 185.907 118.166 186.404 109.884C186.429 109.469 190.574 84.612 181.597 92.9213C173.719 100.213 183.118 112.387 167.477 112.387C159.445 112.387 153.378 102.373 151.405 95.9802C149.73 90.5548 151.255 100.038 151.255 102.376C151.255 108.599 147.476 107.381 141.791 107.381C119.392 107.381 110.698 124.282 110.698 143.671C110.698 146.263 108.795 153.339 106.642 154.933C105.197 156.003 105.291 157.214 105.291 158.826C105.291 160.781 104.572 154.513 105.891 152.986C106.94 151.772 112.39 146.024 113.252 148.815C114.49 152.826 113.402 161.328 113.402 161.328C113.402 161.328 114.742 154.441 117.458 152.43C123.111 148.243 114.792 149.033 119.41 154.376C130.559 167.277 117.433 160.1 126.32 151.874C126.993 151.251 143.705 153.705 145.847 156.184C149.536 160.452 151.255 157.543 151.255 164.943C151.255 166.157 152.425 178.044 153.808 173.564C156.237 165.694 151.024 154.933 163.422 154.933C172.995 154.933 170.844 166.466 173.035 173.564C174.425 178.068 180.391 154.933 179.795 154.933C174.17 154.933 175.663 161.174 182.348 159.799C184.869 159.281 194.515 152.228 194.515 157.435C194.515 164.934 189.012 174.836 200.523 162.997C202.18 161.293 206.19 139.006 213.441 152.43" stroke="#FF0000" stroke-linecap="round" stroke-linejoin="round"/>
</svg>
