<svg width="947" height="978" viewBox="0 0 947 978" fill="none" xmlns="http://www.w3.org/2000/svg">
<path d="M217.4 443.96C196.033 443.96 172.947 433.434 157 419.48C154.912 417.653 151.866 414.377 151.24 411.56C150.619 408.767 151.971 414.342 152.84 415.32C169.216 433.742 189.762 451.516 209.48 466.2C214.451 469.902 233.986 489.107 241.08 487.08C244.537 486.092 235.026 478.115 234.52 477.72C224.252 469.698 213.629 462.156 203.56 453.88C182.395 436.484 159.307 421.837 139.16 403.08C137.295 401.344 125.682 387.621 131.8 396.52C136.101 402.776 139.945 408.895 143.8 415.48C149.802 425.734 146.344 404.957 146.12 401.64C143.62 364.644 141.737 327.638 134.6 291.16C134.155 288.886 129.56 264.102 129.56 276.36C129.56 284.182 129.071 292.168 129.72 299.96C130.772 312.579 136.412 325.206 139.64 337.4C143.628 352.466 148.458 367.381 151.24 382.68C152.494 389.578 148.283 377.704 154.12 385C163.32 396.5 171.673 408.448 181.48 419.48C183.774 422.061 195.257 429.56 189.32 429.56C172.775 429.56 157.763 436.76 141.08 436.76C127.474 436.76 154.029 436.878 156.76 437.08C184.342 439.123 214.806 441.021 240.76 451.48C245.786 453.505 250.9 454.778 255.96 456.6C260.415 458.204 251.758 455.802 250.52 455.16C233.246 446.203 218.245 432.927 201.24 423.48C188.67 416.497 177.114 413.72 163 413.72C155.344 413.72 154.04 414.051 154.04 421.56C154.04 431.969 158.246 442.683 162.04 452.28C165.908 462.063 165.715 452.435 165.56 446.84C165.196 433.735 158.672 419.316 146.84 413.4C145.243 412.602 142.627 411.145 142.52 414.04C142.22 422.144 145.942 427.632 152.12 432.76C183.186 458.545 220.346 477.076 257.56 492.12C261.012 493.515 288.994 506.349 282.68 493.72C278.011 484.382 268.757 477.746 261.4 470.68C252.971 462.584 243.557 455.223 234.52 447.8C226.611 441.303 210.549 429.496 204.44 443.24C203.146 446.152 196.401 449.288 193.56 447.48C176.569 436.668 161.699 420.379 147.4 406.36C139.668 398.78 132.696 390.858 126.12 382.28C126.041 382.177 119.103 373.563 119.72 377.88C120.501 383.345 130.077 389.222 133.88 392.12C143.141 399.176 152.07 405.98 162.44 411.4C168.775 414.712 175.132 417.828 181.24 421.56C185.084 423.909 186.22 423.783 181.72 420.68C163.786 408.312 143.656 395.904 122.52 389.96C120.782 389.471 114.31 385.83 113.8 389.4C112.845 396.088 118.086 401.597 121.64 406.6C128.962 416.905 137.699 427.883 143.96 438.84C147.427 444.907 138.428 425.995 136.12 419.4C131.67 406.686 137.159 404.33 148.44 402.92C166.384 400.677 188.191 401.155 204.2 410.76C205.461 411.517 210.819 413.72 210.04 413.72C203.958 413.72 198.033 412.573 191.96 412.36C165.419 411.429 142.246 417.184 117.16 425.32C111.935 427.015 106.884 428.886 101.8 430.92C96.9719 432.851 112.2 431 117.4 431C126.68 431 135.96 431 145.24 431C150.576 431 158.379 432.506 163.32 430.2C168.618 427.728 172.76 425.388 172.76 418.84C172.76 398.343 175.526 426.68 169.16 426.68C163.635 426.68 161.731 411.131 161.24 407.08C159.686 394.263 159.8 381.582 159.8 368.68C159.8 354.353 159.948 397.574 156.84 411.56C156.426 413.425 155.07 415.822 153.32 416.6C149.283 418.394 149.532 423.013 149 426.84C146.053 448.06 147.256 472.285 149 493.56C150.544 512.393 149.72 531.467 149.72 550.36C149.72 556.003 148.743 556.076 142.92 556.36C126.862 557.143 110.841 562.957 95.8 568.12C75.2144 575.187 54.5518 582.668 34.92 592.12C27.619 595.635 19.4191 597.759 12.36 601.56C8.68898 603.537 26.7207 599.329 29.08 598.68C78.9001 584.979 125.323 561.905 170.44 536.84C209.821 514.961 247.065 488.473 288.36 470.12C292.655 468.211 297.519 467.23 301.72 465.24C305.612 463.396 298.498 463.92 297.4 463.8C262.408 459.965 227.512 456.678 192.92 449.72C176.151 446.347 159.76 442.146 143.96 435.64C141.842 434.768 142.52 450.518 142.52 452.6C142.52 455.059 144.463 466.636 142.52 467C138.742 467.708 141.307 490.534 141.4 492.6C142.583 518.975 148.108 544.94 153.72 570.68C156.912 585.322 160.869 599.352 166.36 613.24C166.501 613.597 170.926 627.394 172.44 625.88C175.728 622.592 171.674 606.053 171 602.52C165.896 575.768 158.61 549.518 153.72 522.68C150.345 504.153 146.668 485.406 140.76 467.48C138.892 461.811 136.617 452.652 131 449.4C124.389 445.573 125.24 478.693 125.24 481.24C125.24 522.351 121.581 565.031 128.12 605.72C128.683 609.226 129.332 621.147 132.76 623.64C134.431 624.855 143.094 613.306 143.96 612.44C151.409 604.991 164.365 591.269 175.96 590.84C189.29 590.346 184.372 631.644 183.96 639C182.803 659.635 177.307 679.932 170.84 699.48C167.633 709.174 164.463 720.027 157.72 727.96C142.947 745.34 140.553 709.956 139.96 700.76C138.671 680.774 137.87 658.722 140.28 638.84C142.171 623.236 150.875 607.161 156.6 592.6C164.949 571.365 186.33 553.034 203 537.88C204.001 536.97 227.651 512.829 230.04 516.28C231.363 518.19 230.398 524.699 230.36 526.52C230.062 540.836 227.391 554.513 224.12 568.44C209.102 632.375 192.573 695.9 178.04 759.96C164.937 817.719 153.089 875.614 141.72 933.72C140.915 937.836 139.64 951.769 139.64 940.76C139.64 904.108 136.251 867.646 135.64 831C134.317 751.631 133.622 671.792 135.96 592.44C137.042 555.709 140.724 520.07 145.72 483.8C147.638 469.875 150.675 455.477 151.16 441.4C151.255 438.632 150.259 444.571 150.04 445.4C149.563 447.201 145.153 458.682 142.84 456.6C137.361 451.669 136.752 434.323 135.32 427.8C131.341 409.675 128.97 391.268 125.56 373.08C125.37 372.066 122.505 353.735 121.24 355C119.04 357.2 117.56 365.989 115.16 369.4C108.455 378.928 89.1412 382.402 78.84 385.24C64.7631 389.118 49.272 391.764 35.96 397.88C35.2084 398.225 23.2602 403.312 23.88 403.56C25.4848 404.202 28.7433 401.96 30.28 401.48C34.7676 400.078 40.7091 399.724 45.4 399.4C70.1611 397.692 101.087 402.015 124.44 391.4C128.146 389.716 129.752 386.106 124.44 388.52C114.976 392.822 102.158 393.56 92.04 393.56C76.1409 393.56 61.7175 390.88 46.12 389.32C40.8304 388.791 33.2156 389.955 41 394.28C48.9481 398.696 61.7155 390.738 68.36 387.16C76.1651 382.957 86.5918 377.72 95.72 377.72C100.536 377.72 105.173 376.28 110.12 376.28C115.606 376.28 105.493 380.79 104.36 381.4C78.9272 395.095 51.3256 405.344 24.44 415.8C21.4564 416.96 19.3428 417.913 16.6 419.48C14.8235 420.495 16.5166 423.096 17.16 420.2C18.2799 415.16 27.8678 413.12 32.28 412.28C52.7255 408.386 73.3824 403.664 93.64 398.6C100.714 396.832 107.206 396.44 114.44 396.44C119.461 396.44 118.04 400.226 118.04 404.36C118.04 410.845 118.56 414.623 122.44 420.2C133.803 436.535 150.883 450.362 166.28 462.68C178.616 472.549 196.555 490.04 213.8 490.04C219.676 490.04 220.443 486.208 226.12 485.64C240.274 484.225 254.333 477.308 267.88 473.4C290.85 466.774 311.637 454.622 334.12 446.84C350.916 441.026 368.491 432.14 382.36 420.76C393.626 411.516 397.137 400.923 402.44 387.96C404.464 383.012 407.883 377.863 408.84 372.6C410.327 364.422 408.708 354.966 408.92 346.68C409.071 340.777 408.928 330.344 411.48 325.24C412.882 322.437 414.132 319.868 416.44 317.56C425.906 308.094 433.882 297.669 442.04 287C453.843 271.565 466.737 257.065 478.04 241.24C480.803 237.372 502.52 216.079 502.52 227.96C502.52 233.094 499.108 237.433 496.44 241.88C487.165 257.338 474.352 270.57 462.52 284.12C453.788 294.12 444.379 303.589 436.6 314.36C434.061 317.875 428.147 325.893 427.64 330.2C427.277 333.284 419.78 330.85 417.56 331.96C416.214 332.633 410.269 338.534 411.48 335.96C418.778 320.453 420.891 302.325 433.4 289.08C441.193 280.828 448.236 273.415 459.32 269.72C469.289 266.397 482.334 262.53 491 256.44C493.053 254.997 518.36 240.353 518.36 245.24C518.36 250.011 512.642 242.362 512.6 242.36C505.288 241.93 498.657 256.165 495 261.4C484.565 276.342 475.723 293.144 466.52 308.92C463.731 313.7 458.806 323.423 453.56 326.2C445.438 330.5 436.241 339.722 426.2 340.28C421.131 340.562 421.205 338.062 423.64 334.52C425.281 332.133 432.549 331 435.16 330.2C444.325 327.391 453.019 324.632 462.52 323C470.505 321.629 478.644 320.864 486.68 319.8C490.128 319.344 496.486 319.854 499.64 318.36C507.765 314.512 504.24 294.889 503.64 288.44C503.176 283.452 502.164 261.356 495 261.08C485.248 260.705 479.296 271.542 473.4 278.36C449.475 306.024 431.816 339.001 407.48 366.2C399.79 374.795 413.978 373.894 419.72 378.36C422.508 380.529 425.311 384.881 426.12 388.52C427.637 395.345 440.005 381.09 442.04 379.24C448 373.822 455.831 369.529 461.4 363.96C464.243 361.117 454.246 361.853 453.4 361.8C443.579 361.186 433.703 358.277 423.96 356.84C413.928 355.36 404.32 353.61 394.52 351.16C391.312 350.358 387.2 348.92 383.88 348.92C380.563 348.92 391.181 350.157 393.8 348.12C397.219 345.46 400.34 338.174 402.44 334.44C408.016 324.527 411.344 313.803 413.96 302.76C418.258 284.615 419.561 266.273 422.6 248.04C422.813 246.763 425.416 226.734 425.48 226.76C429.519 228.376 426.2 267.276 426.2 273.32C426.2 293.358 433.4 233.678 433.4 213.64C433.4 207.498 435.011 200.512 431.16 195.56C427.681 191.087 428.945 187.528 427.56 182.68C426.649 179.491 422.74 179.492 421.96 176.76C420.345 171.108 420.44 173.028 420.44 178.28C420.44 185.618 419.979 192.833 421.88 199.96C422.537 202.424 426.673 212.264 426.12 214.2C425.432 216.61 419.18 201.115 418.36 199.24C417.397 197.039 416.738 194.097 413.96 193.48C412.491 193.154 409.802 194.144 408.92 192.6C398.6 174.54 398.096 155.409 390.84 136.28C384.882 120.572 374.367 107.141 366.68 92.28C363.24 85.63 355.64 76.3352 355.64 68.76C355.64 60.3932 349.843 51.9523 345.72 45.08C338.346 32.7906 331.103 18.2491 320.36 8.44C315.689 4.17477 306.94 3.32999 300.92 5.48C295.263 7.50033 290.204 7.64 284.28 7.64C277.789 7.64 279.087 9.82374 274.28 11.96C268.84 14.3778 266.088 13.4564 261.72 9.4C251.662 0.0607328 236.472 1.88 223.96 1.88C221.331 1.88 206.874 -0.178552 204.76 2.2C203.173 3.98551 223.445 10.1138 224.92 10.52C248.171 16.9225 272.924 19.9158 296.92 21.72C318.291 23.3268 342.373 23.4212 362.52 31.48C367.303 33.3933 373.992 37.5655 372.92 43.64C371.693 50.5952 327.216 46.7195 322.2 44.76C316.786 42.6453 311.044 40.3674 306.68 36.44C301.926 32.1611 308.709 38.4688 309.72 39.48C336.948 66.7079 362.51 96.0722 388.92 124.12C401.951 137.959 413.611 152.619 425.24 167.64C430.662 174.644 435.079 181.291 437.4 189.88C438.278 193.13 441.391 202.852 438.84 206.04C435.947 209.657 432.841 209.36 429.08 207.48C417.392 201.636 408.52 217.724 404.6 226.2C397.614 241.306 395.96 254.731 395.96 271.16C395.96 275.96 395.96 290.36 395.96 285.56C395.96 280.097 400.215 275.963 397.4 283C393.055 293.863 389.5 305.135 384.76 315.8C382.067 321.86 383 312.902 383 310.04C383 293.825 381.56 277.431 381.56 261.08C381.56 258.849 382.68 234.04 379.8 242.68C377.75 248.83 373.152 255.088 368.6 259.64C365.079 263.161 361.867 266.706 359.64 271.16C357.607 275.226 355.754 281.583 351.32 283.8C343.545 287.687 335.608 273.723 331.16 269.72C323.983 263.261 314.281 268.852 308.12 274.04C304.361 277.205 270.954 291.659 270.68 287C270.308 280.676 275.021 271.112 277.56 265.4C282.692 253.854 272.12 237.436 272.12 225.88C272.12 221.283 269.907 220.281 274.2 225.8C277.81 230.441 277.726 231.174 276.36 237.32C275.57 240.874 273.602 245.906 271.32 248.84C266.896 254.528 265.373 250.272 262.68 246.04C259.332 240.779 255.777 235.724 252.76 230.12C251.004 226.858 247.449 221.014 251.32 222.12C258.489 224.168 279.32 216.969 279.32 228.68C279.32 234.144 278.911 236.6 272.84 236.6C267.718 236.6 262.472 240.764 257.8 235.8C255.065 232.894 247.597 223.675 244.04 226.52C241.869 228.257 241.206 234.644 239.72 237.32C238.715 239.129 234.213 247.234 236.2 240.28C237.317 236.371 242.873 232.836 246.36 231.48C252.463 229.106 260.634 223.64 267.08 223.64C269.968 223.64 277.634 225.58 276.36 230.04C274.137 237.821 254.84 219.448 254.84 234.44C254.84 238.79 253.944 238.04 259.88 238.04C266.413 238.04 263.413 235.412 267.16 232.2C271.394 228.571 272.12 228.756 272.12 222.92C272.12 219.368 273.56 222.189 273.56 224.28C273.56 228.617 270.941 231.675 268.6 235.08C266.593 237.999 251.897 256.835 249.16 244.52C247.799 238.397 249.08 251.491 249.08 253.96C249.08 260.163 248.644 265.84 247.56 271.8C246.43 278.015 243.237 284.392 241.88 290.84C240.553 297.141 238.186 302.868 235.32 308.6C231.196 316.849 223.025 320.145 215.16 323.72C197.578 331.712 175.349 331.64 156.44 331.64C141.251 331.64 136.348 313.439 126.68 304.28C122.379 300.205 122.36 301.371 122.36 294.2C122.36 277.354 121.406 261.688 118.36 245.24C117.103 238.451 112.539 231.503 112.28 224.76C111.948 216.129 112.28 238.049 112.28 240.92C112.28 250.893 112.28 260.867 112.28 270.84C112.28 282.093 112.28 248.333 112.28 237.08C112.28 217.685 114.395 200.935 122.04 183C125.621 174.598 127.59 166.292 137.08 163.48C142.803 161.784 149.902 162.345 155.16 158.84C169.045 149.583 176.176 124.913 181.08 110.2C187.346 91.4022 187.754 70.8218 194.68 52.44C198.882 41.2896 204.195 32.3117 215.24 27.08C220.579 24.5508 225.709 21.5471 231.08 19.16C237.113 16.4786 238.237 11.4288 241.24 6.28C246.348 -2.47683 241.34 8.97113 237.64 12.44C233.446 16.3723 229.187 19.2787 223.88 21.32C214.271 25.0157 204.524 26.0168 196.52 33.64C188.242 41.5238 182.478 49.8294 177.88 60.28C163.258 93.5108 149.401 127.387 133.96 160.2C124.517 180.265 118.04 196.918 118.04 218.68C118.04 238.226 118.255 257.609 119.4 277.08C120.173 290.222 122.36 304.135 122.36 317.16C122.36 327.039 129.95 340.58 141.32 336.6C153.631 332.291 167.187 326.628 180.28 325.88C185.344 325.591 189.887 326.358 194.68 324.76C204.979 321.327 219.533 319.861 220.28 307.16C220.429 304.628 224.6 300.796 224.6 306.04C224.6 311.588 218.625 310.94 213.88 309.72C206.776 307.893 201.837 302.4 194.68 300.28C191.87 299.447 183.967 299.483 190.04 302.52C199.35 307.175 209.887 310.04 220.28 310.04C228.524 310.04 222.771 312.236 217.72 314.04C209.008 317.151 198.353 317.24 189.24 317.24C183.095 317.24 179.007 317.712 173.88 314.36C170.301 312.02 165.935 308.221 172.76 308.6C185.834 309.326 199.84 317.24 213.08 317.24C221.498 317.24 208.612 313.506 207 312.92C195.612 308.779 183.416 307.158 172.44 301.4C161.626 295.727 162.105 298.085 173.08 300.28C188.441 303.352 204.6 305.72 220.28 305.72C228.201 305.72 227.348 303.814 220.28 300.28C215.009 297.645 206.264 295.864 200.44 295.64C196.576 295.491 191.771 294.728 191.48 299.96C191.289 303.407 188.592 310.04 184.28 310.04C181.042 310.04 178.616 303.782 176.76 301.72C174.083 298.745 166.823 298.272 163 295.96C161.658 295.148 149.971 287.046 149.72 291.32C149.515 294.812 153.032 296.293 155.8 297.4C165.03 301.092 174.17 307.552 182.52 312.92C190.91 318.314 184.259 313.711 179.96 311.8C176.704 310.353 169.248 310.257 165.56 310.04C159.3 309.672 158.894 305.85 166.68 307.48C178.727 310.001 190.635 314.067 202.84 316.44C206.102 317.074 229.859 323.046 228.84 319.48C227.883 316.131 224.162 316.084 227.56 312.12C232.703 306.12 239.295 301.355 245.4 296.36C257.842 286.18 270.306 297.342 281.48 302.76C286.635 305.26 292.931 308.6 298.76 308.6C302.209 308.6 301.534 302.84 306.12 302.84C324.756 302.84 343.66 301.383 361.88 305.8C373.421 308.598 385.191 310.17 396.76 312.84C398.682 313.283 400.419 315.501 402.36 313.56C411.131 304.789 384.896 296.242 380.12 295.56C374.345 294.735 369.885 292.76 363.56 292.76C359.257 292.76 356.241 298.677 352.68 300.68C347.943 303.344 343.77 306.129 338.52 307.8C335.196 308.858 331.861 310.04 328.36 310.04C327.482 310.04 322.68 308.531 322.68 309.32C322.68 310.318 345.509 312.92 347.64 312.92C351.556 312.92 374.36 315.54 374.36 309.32C374.36 296.817 346.04 308.991 341.64 311.8C326.256 321.619 312.874 334.209 298.92 345.88C293.037 350.801 287.523 357.401 280.84 361.16C278.99 362.2 276.77 365.368 274.36 364.68C273.077 364.313 273.113 360.815 274.44 360.52C287.441 357.631 303.399 363.552 316.04 365.48C331.311 367.81 346.559 370.65 361.88 372.6C363.355 372.788 373.641 372.843 374.28 375.72C375.817 382.637 369.416 389.853 365.32 394.68C345.321 418.25 322.122 440.21 297.8 459.32C284.092 470.091 267.038 482.635 257.08 497.24C251.673 505.17 253.82 508.76 243.96 508.76C215.526 508.76 177.933 502.673 157.56 527.8C151.347 535.463 150.888 548.196 149.08 557.4C147.348 566.219 146.84 574.771 146.84 583.72C146.84 602.069 151.893 613.755 163.88 627.24C171.876 636.235 190.244 634.816 201.08 635.32C216.816 636.052 232.686 635.48 248.44 635.48C258.52 635.48 268.662 634.751 277 641.32C288.713 650.549 283.816 678.303 279.32 689.64C271.927 708.283 260.346 725.392 248.44 741.4C242.402 749.518 240.794 752.007 232.6 754.2C212.114 759.682 193.862 781.623 178.84 794.84C147.113 822.755 115.661 852.599 89.56 885.88C75.5245 903.777 59.9227 922.703 49.24 943C42.3429 956.104 41.3707 946.395 47 937.56C70.6438 900.452 96.7494 864.309 121.56 827.96C143.373 796.003 165.831 765.062 194.04 738.36C198.662 733.985 205.218 728.171 211.64 726.52C211.769 726.487 215.768 725.745 215.32 726.84C213.032 732.433 197.071 738.509 193.24 740.6C155.428 761.235 118.891 784.081 80.76 804.12C65.743 812.012 45.7554 826.353 27.64 827C24.0653 827.128 23.1062 824.213 23 820.92C22.6901 811.314 27.9411 809.979 36.76 807.48C79.9149 795.253 126.224 799.329 170.2 792.12C190.21 788.84 155.242 774.958 151.64 773.72C110.583 759.607 51.6389 742.927 27.64 702.04C18.1288 685.836 47.7189 697.389 53.08 698.68C78.9746 704.914 106.006 710.894 129.72 723.48C138.933 728.37 147.059 735.429 155.32 741.72C155.646 741.968 163.461 746.36 158.84 746.36C139.177 746.36 116.934 726.794 107.96 710.84C104.011 703.82 99.5069 696.504 99.32 688.28C99.1478 680.704 99.32 693.155 99.32 694.52C99.32 711.32 99.32 728.12 99.32 744.92C99.32 746.491 98.2318 753.413 99.64 754.68C104.904 759.417 127.246 751.299 132.44 750.2C150.247 746.433 168.388 741.356 186.52 739.48C188.543 739.271 197.134 737.422 197.24 740.92C197.673 755.202 193.738 766.99 188.44 780.12C180.607 799.532 173.361 819.967 162.04 837.72C157.647 844.609 151.16 857.654 151.16 842.36C151.16 809.167 156.702 778.018 165.56 746.04C170.332 728.812 175.525 711.571 181.4 694.68C183.249 689.365 185.142 682.228 188.6 677.56C190.923 674.424 189.671 685.347 189.4 689.24C188.242 705.893 186.572 722.463 186.04 739.16C185.245 764.093 184.692 788.979 183.16 813.88C181.963 833.336 183.825 814.03 185.72 807.16C186.816 803.187 191.109 791.717 183.16 799.96C177.909 805.405 156.496 833.152 156.92 812.6C157.748 772.46 180.451 735.847 204.44 705.24C205.343 704.088 216.126 692.829 217.08 695.48C220.668 705.446 217.4 721.71 217.4 731.96C217.4 767.084 218.313 802.165 220.28 837.24C221.336 856.07 221.512 876.781 226.04 895.16C226.317 896.283 227.48 904.154 227.48 901.56C227.48 889.874 225.351 878.445 224.28 866.84C221.5 836.709 221.72 806.5 221.72 776.28C221.72 774.757 221.142 755.927 221.08 755.96C217.167 758.032 213.713 766.065 211.64 769.72C199.43 791.248 193.919 815.515 191.32 839.96C189.725 854.965 188.042 872.925 190.36 888.12C191.077 892.822 192.221 900.541 195.8 904.12C200.407 908.727 201.56 899.652 201.56 897.56C201.56 853.97 209.908 808.893 217.72 766.2C221.35 746.361 225.605 726.554 230.2 706.92C231.789 700.133 234.125 680.138 236.04 686.84C237.138 690.683 235.904 695.722 236.2 699.72C237.334 715.034 239 729.976 239 745.4C239 803.187 240.239 861.258 229.72 918.36C229.186 921.258 228.203 924.183 229 919.8C230.278 912.771 230.301 905.801 231.16 898.68C238.874 834.766 255.182 773.151 275.72 712.2C279.211 701.84 283.231 685.595 290.04 676.84C290.921 675.707 290.926 680.72 291.56 681.48C294.1 684.528 292.28 694.257 292.28 698.12C292.28 705.799 293.72 713.923 293.72 720.84C293.72 758.448 283.709 795.737 280.04 833.16C278.563 848.226 279.32 838.346 279.32 830.52C279.32 820.037 279.85 813.894 268.44 819.08C261.9 822.053 260.142 819.041 266.12 823.88C280.858 835.811 292.23 854.068 292.92 873.16C293.489 888.891 292.019 916.381 279.32 929.08C274.974 933.426 276.231 921.553 276.52 919.24C277.281 913.153 290.9 905.599 293.88 899.64C309.625 868.151 315.331 833.772 320.44 799.4C322.518 785.421 324.419 771.322 326.84 757.4C327.254 755.02 329.72 749.607 329.72 755C329.72 775.043 328.887 795.261 330.6 815.24C332.645 839.1 338.36 863.56 338.36 887.48C338.36 900.775 330.306 877.707 328.28 873.8C322.865 863.356 318.651 844.28 303.88 844.28C302.382 844.28 292.57 843.477 294.52 842.92C299.361 841.537 306.272 842.944 311.24 842.76C322.91 842.328 334.899 838.776 346.04 835.4C358.173 831.723 370.212 827.634 381.56 821.96C384.969 820.255 390.721 818.179 393 814.76C395.257 811.375 388.553 805.585 386.2 803.8C378.94 798.293 373.009 793.78 367.24 786.68C363.419 781.977 358.375 776.005 356.44 770.2C354.655 764.845 355.47 769.516 355.72 772.52C357.16 789.804 361.745 807.177 364.2 824.36C369.438 861.029 371.495 898.488 372.76 935.48C373.059 944.216 370.578 955.964 373 964.44C373.728 966.987 374.36 961.857 374.36 961.4C374.36 944.91 367.663 928.483 365.16 912.28C358.919 871.879 360.989 829.25 361.56 788.6C361.945 761.17 362.387 731.91 367.96 704.84C368.044 704.432 370.363 695.288 371.48 698.36C375.095 708.3 372.92 721.26 372.92 731.48C372.92 757.821 373.144 784.078 375.24 810.36C378.008 845.072 382.925 880.76 392.76 914.2C395.979 925.145 395.691 902.639 395.64 901.72C393.556 864.208 389.605 826.857 385.24 789.56C382.452 765.735 378.552 739.194 382.2 715.16C382.269 714.708 385.45 697.942 388.44 700.6C392.312 704.042 388.523 724.923 387.64 729.56C385.779 739.332 397.192 726.262 398.52 724.44C410.708 707.716 427.855 701.582 446.36 693.08C447.733 692.449 464.259 687.32 456.44 687.32C437.362 687.32 418.764 698.846 402.36 707.48C400.578 708.418 397.616 710.617 396.28 712.12C395.742 712.725 398.686 713.827 399.16 714.68C400.148 716.458 401.16 717.826 401.4 719.96C403.062 734.754 402.434 750.063 402.84 764.92C403.944 805.337 405.915 845.901 409.24 886.2C410.057 896.104 411.359 906.027 411.8 915.96C411.833 916.711 411.499 918.219 412.12 918.84C413.288 920.008 413.432 914.946 413.56 914.52C421.197 889.064 437.7 865.446 454.04 844.92C481.318 810.654 517.27 779.816 553.24 754.68C557.202 751.912 570.189 745.916 566.68 749.24C563.161 752.574 556.344 752.134 551.96 753.08C510.311 762.069 467.025 771.742 427.96 789.24C413.228 795.839 404.451 803.429 397.4 818.36C395.99 821.346 396.61 823.051 395.96 819.8C394.275 811.375 377.735 812.642 372.28 812.6C332.567 812.292 287.613 818.563 249.24 806.04C228.378 799.232 212.008 788.245 195.8 774.04C193.809 772.295 187.431 764.686 184.6 769.24C180.124 776.44 179.758 788.976 177.72 796.92C166.115 842.164 151.855 886.823 137.72 931.32C128.614 959.986 119.871 989.13 105.08 1015.48C103.661 1018.01 88.8769 1042.15 88.12 1039C86.7019 1033.09 104.168 1018.19 107 1014.84C134.216 982.625 162.175 951.393 190.52 920.12C211.869 896.565 233.365 873.052 253.88 848.76C279.446 818.488 306.375 787.363 324.44 751.8C336.355 728.345 340.015 699.441 342.36 673.56C343.709 658.664 344.12 643.71 344.12 628.76C344.12 620.136 346.461 605.781 342.04 597.72C336.547 587.703 324.377 601.031 320.76 605.56C305.875 624.2 295.291 647.231 285.24 668.6C261.039 720.054 241.015 773.425 223 827.32C199.452 897.77 179.691 969.942 167.64 1043.32C167.458 1044.43 162.57 1065.24 167.96 1064.28C174.927 1063.04 181.448 1057.13 186.68 1053.08C205.339 1038.64 223.18 1023.16 241.08 1007.8C271.847 981.396 303.572 954.617 338.52 933.88C350.572 926.729 363.324 919.953 376.76 915.8C379.36 914.996 386.513 912.335 389.56 913.72C392.609 915.106 388.239 922.133 386.68 923.16C376.937 929.576 361.655 928.136 354.84 918.52C341.53 899.74 344.828 868.6 346.52 847.48C348.183 826.72 354.764 803.612 366.84 786.2C370.742 780.573 368.218 786.094 362.36 787.32C349.638 789.983 339.583 790.66 328.6 782.2C315.031 771.749 304.333 755.932 296.92 740.6C292.998 732.489 289.616 700.28 279.32 700.28C267.689 700.28 255.96 703.358 244.92 706.68C219.304 714.388 194.178 722.849 168.28 729.72C140.201 737.17 109.745 747.889 80.52 749.16C75.0514 749.398 68.0318 750.367 62.6 749.16C60.7636 748.752 59.6358 747.445 58.28 746.36C55.7493 744.335 68.4295 744.92 68.76 744.92C94.3746 744.92 120.148 745.778 145.72 744.2C151.405 743.849 166.912 743.745 169.24 736.76C174.344 721.449 160.05 704.034 148.6 696.36C129.116 683.302 106.073 673.948 82.84 670.28C81.3635 670.047 72.5275 668.001 73.56 670.84C75.6852 676.684 82.1925 684.397 85.88 688.92C99.5935 705.742 115.118 722.193 131.72 736.28C135.111 739.158 139.534 742.17 142.44 745.56C143.867 747.225 144.175 747.434 141.72 747.88C133.887 749.304 125.601 752.92 118.04 755.08C100.18 760.183 82.7377 763.54 64.2 764.92C46.1321 766.265 22.4244 770.972 5.96001 760.84C5.51113 760.564 -0.77379 755.574 2.44001 755.08C20.785 752.258 41.5231 756.362 59.32 760.44C93.3054 768.228 126.699 776.382 159.24 789C174.009 794.727 188.259 801.405 202.84 807.48C204.123 808.015 209.72 809.623 209.72 811.72C209.72 812.733 207.631 812.069 206.68 811.72C202.262 810.097 196.076 806.639 192.36 804.68C165.754 790.655 136.562 771.935 105.88 769.24C94.0802 768.204 79.6808 767.983 68.6 773.08C62.6529 775.816 58.9421 783.898 56.2 789.32C45.0316 811.403 46.5437 835.887 46.12 860.04C45.8438 875.784 45.4851 891.752 46.2 907.48C46.4049 911.988 47.7513 936.42 53.96 937.8C60.5686 939.269 69.7479 930.763 74.44 928.04C134.583 893.136 203.918 873.256 269.88 852.92C456.893 795.265 650.651 753.281 845.56 734.6C876.751 731.61 970.734 729.08 939.4 729.08C936.266 729.08 928.972 729.028 926.68 731.32C923.277 734.723 927.81 736.634 924.2 740.12C913.548 750.404 903.36 759.655 889.96 766.52C846.792 788.635 797.333 800.962 750.04 810.28C685.793 822.939 616.712 827.15 552.68 810.84C552.185 810.714 535.342 803.404 539.96 807.56C547.027 813.92 554.158 818.763 563.08 822.52C580.147 829.706 597.64 826.992 615.32 830.76C629.356 833.751 641.985 841.208 653 850.2C665.833 860.676 676.31 873.443 686.44 886.44C691.894 893.437 697.191 900.574 702.76 907.48C703.382 908.251 705.4 909.91 705.4 911.16C705.4 912.561 702.757 911.286 702.36 911.16C692.552 908.039 681.227 907.324 671.16 906.2C600.254 898.285 528.364 902.984 457.24 904.6C453.177 904.692 417.735 909.549 420.52 899.8C421.244 897.266 421.903 897.863 419.56 895.16C414.369 889.17 410.636 881.383 406.76 874.6C385.17 836.818 364.502 798.501 343.56 760.36C313.922 706.38 284.777 652.043 254.6 598.36C247.756 586.185 240.609 569.65 231.24 558.84C226.911 553.845 199.66 557.735 194.92 557.8C179.603 558.011 162.818 557.996 149.72 567.32C128.214 582.629 120.913 606.197 116.52 630.36C116.237 631.915 115.16 634.909 115.16 631.64C115.16 612.297 113.968 592.985 113.8 573.64C113.521 541.376 115.337 508.757 113.64 476.52C113.3 470.052 108.776 484.029 107.4 486.04C104.293 490.58 103.483 487.115 102.92 483.4C100.94 470.331 95.4338 458.747 90.6 446.52C76.3869 410.569 67.1815 374.546 64.44 335.8C63.3287 320.093 55.7348 278.31 77.64 273C88.4673 270.375 94.6794 278.2 104.28 278.2C105.228 278.2 96.6441 225.229 96.04 220.36C93.547 200.269 92.5432 178.97 93.64 158.68C94.2456 147.477 99.6591 154.696 106.84 151.64C122.201 145.103 139.955 134.302 153.24 124.28C164.136 116.061 171.827 102.115 175.32 88.92C176.774 83.4277 171.231 76.8789 169.88 66.36C167.79 50.08 167 33.7853 167 17.4C167 11.452 167.595 10.9305 165.24 15.64C159.297 27.5269 211.116 53.96 220.28 59C221.154 59.4807 227.536 63.0485 228.6 60.92C229.573 58.9744 228.92 55.1817 228.92 53.24C228.92 44.0133 228.92 34.7867 228.92 25.56C228.92 23.1492 228.92 4.82956 228.92 9.08C228.92 13.7876 229.376 18.8229 228.6 23.48C227.025 32.9326 214.587 31.4935 207.32 30.04C202.148 29.0056 187.645 23.48 192.92 23.48C197.959 23.48 207.785 30.993 212.12 32.76C234.329 41.8121 257.577 48.1628 280.76 54.2C291.078 56.8869 278.72 36.0656 272.6 34.68C248.072 29.1265 218.871 29.998 196.28 18.36C194.339 17.3601 197.403 17.7005 197.88 17.72C210.302 18.227 222.867 20.378 235.16 21.88C265.033 25.5299 295.206 31.0601 325.24 33.24C327.088 33.3742 333.22 34.583 335.16 33.24C336.091 32.5955 335.111 31.0666 334.52 30.68C329.306 27.271 319.364 29.1928 313.88 30.68C303.129 33.5954 291.456 34.6071 280.44 35.8C273.161 36.5882 267.046 37.2442 260.6 33.24C258.591 31.9919 251.583 26.5683 258.04 26.36C269.217 25.9995 280.49 27.0653 291.64 26.04C294.845 25.7453 307.648 26.4852 307.48 20.6C307.257 12.7863 289.47 11.2828 284.6 10.84C262.496 8.83055 286.88 22.0131 293.88 25.24C315.245 35.0893 338.479 41.5126 359.16 52.76C367.197 57.1308 368.219 60.7404 363.16 67.8C358.448 74.3746 352.932 80.4137 347.64 86.52C346.889 87.387 338.858 94.4468 340.76 95.16C342.758 95.9093 345.11 95.2435 347.16 95.8C355.23 97.9904 362.133 104.759 367.48 110.84C379.72 124.762 391.814 143.054 398.52 160.44C398.962 161.586 403.788 173.509 401.4 174.04C398.896 174.597 393.986 166.946 395.8 168.76C413.303 186.263 425.047 208.522 437.08 229.88C441.103 237.022 444.838 246.518 451 252.12C451.986 253.017 453.09 247.248 453.24 246.68C455.805 236.991 466.331 230.337 473.88 224.92C490.675 212.869 508.739 201.076 529.88 199.48C552.916 197.741 542.823 232.819 535.48 243.48C520.621 265.052 505.992 286.644 492.44 309.08C486.587 318.77 482.388 326.725 479.64 337.56C474.963 356.003 471.622 374.658 467.64 393.24C465.783 401.905 461.304 412.222 460.76 420.92C460.698 421.919 466.66 420.92 468.28 420.92C481.617 420.92 494.367 418.319 507 414.04C509.69 413.129 518.469 407.664 518.36 413.56C517.936 436.428 496.709 461.178 483.64 477.88C466.903 499.27 442.764 513.514 420.44 528.28C399.075 542.412 377.009 555.45 355.64 569.56C335.21 583.05 315.845 599.407 300.12 618.2C289.487 630.908 277.886 642.698 272.76 658.68C272.053 660.884 268.609 672.426 272.12 667.16" stroke="#C80707" stroke-width="2" stroke-linecap="round" stroke-linejoin="round"/>
</svg>
