<svg width="918" height="690" viewBox="0 0 918 690" fill="none" xmlns="http://www.w3.org/2000/svg">
<path d="M353.495 267.711C378.363 259.102 404.037 253.118 428.935 244.191C489.834 222.354 551.193 202.014 613.815 185.631C648.447 176.57 681.907 174.111 717.495 174.111C719.289 174.111 722.135 173.345 722.135 175.871C722.135 186.199 702.314 198.372 696.855 202.911C670.835 224.541 643.774 244.721 616.455 264.671C556.65 308.342 497.081 352.382 436.855 395.471C391.986 427.572 346.725 459.246 299.735 488.191C280.853 499.821 261.731 511.24 241.255 519.871C214.994 530.939 188.069 541.227 161.335 551.071C158.29 552.192 145.742 557.972 143.575 551.711C142.149 547.591 146.245 544.888 149.095 542.751C166.489 529.705 192.554 523.799 212.855 518.271C317.899 489.663 429.566 485.206 537.815 481.951C555.817 481.409 574.14 481.252 591.895 477.871C602.527 475.845 606.911 471.743 603.255 460.591C596.034 438.568 572.514 419.959 554.455 407.071C530.568 390.024 500.188 378.579 471.095 375.231C441.378 371.811 409.791 375.552 394.695 404.831C387.366 419.044 389.495 436.245 389.495 451.711C389.495 465.976 389.278 478.75 398.455 490.591C402.755 496.14 408.672 499.391 415.735 499.391C423.934 499.391 430.543 495.155 436.615 489.951C453.034 475.877 466.985 457.77 481.015 441.471C516.89 399.792 547.583 355 577.815 309.151C596.273 281.158 612.475 251.357 632.375 224.351C636.715 218.46 647.867 198.984 656.215 197.871C659.867 197.384 641.093 234.705 640.375 235.951C600.01 305.878 547.16 369.165 483.415 418.911C468.146 430.826 450.17 443.004 431.495 448.751C416.958 453.223 394.521 457.39 381.735 447.391C358.32 429.079 342.92 401.632 330.455 375.231C315.221 342.966 306.127 309.567 296.215 275.551C292.373 262.366 290.172 248.809 286.615 235.551C286.483 235.059 283.862 226.671 286.375 227.551C294.114 230.259 304.165 242.249 310.215 246.991C362.285 287.802 417.923 324.154 471.735 362.591C519.561 396.752 566.627 432.152 617.175 462.271C621.853 465.058 691.247 504.218 693.175 496.991C696.734 483.643 690.345 464.258 688.375 451.551C680.931 403.557 677.78 355.866 676.375 307.391C675.837 288.86 675.152 270.32 674.695 251.791C674.638 249.491 672.51 232.09 675.415 230.431C678.13 228.879 682.917 232.475 684.695 233.791C706.713 250.09 728.206 267.031 750.455 283.071C775.435 301.08 800.27 319.126 825.415 336.911C840.313 347.449 854.822 358.604 871.415 366.431C881.153 371.024 892.432 377.151 903.575 377.151C904.932 377.151 909.376 378.146 905.495 379.311C888.287 384.473 865.488 384.023 848.295 385.951C777.55 393.88 706.804 402.095 636.215 411.311C533.976 424.659 432.517 444.014 329.975 454.911C297.906 458.318 265.744 460.662 233.655 463.871C225.959 464.64 218.408 465.826 210.775 466.991C208.422 467.349 201.986 466.914 199.975 468.591C198.569 469.762 203.585 469.311 205.415 469.311C212.006 469.311 218.59 469.412 225.175 468.991C325.52 462.569 425.556 442.843 524.215 424.511C578.555 414.413 632.72 403.137 685.895 388.031C695.666 385.255 705.645 381.813 715.735 380.351C717.841 380.045 730.467 377.621 722.135 376.831C651.965 370.177 580.733 372.831 510.375 372.831C442.028 372.831 373.681 372.831 305.335 372.831C289.264 372.831 269.768 375.977 253.975 372.511C251.33 371.93 275.499 364.446 277.095 364.031C345.011 346.361 415.18 338.271 485.335 338.271C498.531 338.271 511.959 337.531 525.095 338.991C526.78 339.178 539.77 341.147 531.815 343.391C523.191 345.823 513.777 346.72 505.015 348.191C472.494 353.648 440.273 360.224 408.055 367.231C374.906 374.439 341.743 380.495 308.375 386.431C298.021 388.272 287.716 390.341 277.335 392.031C271.553 392.972 254.752 396.996 259.895 394.191C287.081 379.362 319.567 370.53 348.695 360.751C404.19 342.119 461.087 327.298 518.455 315.711C548.105 309.722 577.369 303.383 607.415 300.191C618.448 299.018 629.2 297.951 640.295 297.951C643.935 297.951 633.141 299.301 629.575 300.031C603.159 305.438 577.104 312.476 551.255 320.111C524.691 327.957 498.44 336.499 472.535 346.271C465.829 348.8 440.535 355.608 440.535 364.991C440.535 369.957 449.64 360.637 453.255 357.231C476.333 335.484 496.043 310.102 517.895 287.151C531.667 272.685 546.193 260.345 561.495 247.711C569.64 240.985 578.2 231.554 589.015 229.151C594.321 227.971 586.986 239.868 586.535 240.591C580.262 250.627 573.142 260.305 568.775 271.391C565.583 279.491 560.269 295.536 575.255 290.111C590.085 284.741 603.768 269.727 616.615 260.911C631.751 250.523 647.773 240.252 664.215 232.031C674.417 226.929 695.823 216.729 684.375 236.671C672.339 257.636 657.825 277.665 648.055 299.871C640.703 316.58 661.221 289.218 663.095 285.471C679.568 252.523 698.086 219.177 721.255 190.431C734.369 174.16 751.09 160.79 767.015 147.391C769.549 145.258 787.38 127.523 786.935 139.551C786.473 152.024 772.941 164.926 766.455 174.751C747.996 202.707 735.27 234.72 723.735 266.031C723.249 267.349 719.811 276.134 721.015 277.471C725.016 281.917 738.29 262.417 739.255 261.151C757.156 237.638 777.038 216.044 796.615 193.951C807.712 181.427 818.499 168.374 831.495 157.711C834.232 155.464 837.335 153.937 837.335 158.591C837.335 180.326 821.716 200.654 810.775 218.271C799.841 235.874 788.128 252.306 774.855 268.191C766.675 277.98 758.02 290.396 747.415 297.711C738.951 303.548 733.961 303.866 733.655 292.831C733.428 284.688 734.962 278.324 725.815 287.151C635.919 373.892 527.801 440.661 428.855 516.511C411.5 529.814 393.262 541.867 374.935 553.791C370.606 556.607 359.108 566.057 352.855 564.271C348.516 563.031 357.475 548.944 358.135 547.871C395.165 487.641 440.535 433.49 486.295 379.711C510.766 350.95 536.028 322.872 560.775 294.351C580.646 271.448 599.618 247.46 620.615 225.551C628.181 217.655 636.433 210.423 644.375 202.911C649.462 198.098 655.191 191.082 661.895 188.351C664.62 187.24 664.015 189.412 662.935 190.911C657.376 198.616 648.414 204.991 641.495 211.231C600.674 248.04 559.678 285.427 516.055 318.911C503.113 328.844 490.27 338.895 476.535 347.711C467.628 353.427 459.233 361.576 448.775 364.191C442.769 365.692 439.471 364.939 434.455 359.551C428.236 352.871 426.962 341.776 422.615 333.951C409.938 311.132 389.992 350.587 384.135 358.831C358.893 394.356 331.988 431.359 297.655 458.911C295.418 460.706 286.135 470.57 286.135 462.431C286.135 456.603 289.157 450.538 291.335 445.311C299.644 425.369 310.325 406.52 321.575 388.111C381.68 289.756 453.933 199.494 526.775 110.431C556.506 74.0773 585.733 30.8225 623.575 1.95062C627.571 -1.09869 671.12 -38.055 670.215 -24.9294C669.163 -9.68925 661.597 6.00074 657.015 20.3506C641.723 68.2341 625.519 116.557 604.535 162.271C582.869 209.467 555.425 255.363 519.415 293.071C483.247 330.943 434.096 365.001 384.455 382.591C366.447 388.971 344.465 390.469 325.495 390.111C304.229 389.709 294.83 380.147 294.455 359.231C294.302 350.712 294.068 341.94 295.095 333.471C297.305 315.236 306.026 299.823 315.255 284.271C341.684 239.732 374.713 197.07 417.415 166.911C461.671 135.653 538.046 112.546 583.415 153.791C593.742 163.179 604.897 174.582 609.575 188.031C615.134 204.012 614.135 221.236 614.135 237.871C614.135 257.841 608.264 277.062 604.375 296.511C602.907 303.85 613.014 284.031 613.015 284.031C647.052 219.168 695.339 157.945 746.855 106.191C770.995 81.9381 797.726 60.1506 826.615 41.7906C841.288 32.4645 860.069 18.5906 878.455 18.5906C885.72 18.5906 880.635 31.5888 879.095 34.6706C865.383 62.0937 843.072 87.0428 824.375 110.911C780.535 166.872 734.441 220.845 687.015 273.791C613.116 356.288 539.887 439.242 466.615 522.271C444.692 547.112 421.796 571.123 399.415 595.551C391.861 603.795 367.613 626.517 377.095 620.591C381.986 617.533 386.481 609.687 389.975 605.551C409.174 582.82 430.355 561.888 451.815 541.311C560.808 436.797 684.119 347.892 800.055 251.391C817.081 237.219 834.756 223.893 851.895 209.871C852.785 209.142 865.295 198.436 866.055 202.991C866.802 207.478 860.812 210.259 857.655 211.871C774.596 254.265 688.063 290.234 604.215 331.071C443.136 409.521 279.523 490.217 134.935 596.991C100.932 622.1 68.1827 648.477 32.8546 671.711C26.6803 675.771 10.6362 690.372 1.65457 688.991C-1.97909 688.432 10.6742 658.85 11.2546 657.631C50.5908 574.963 104.89 502.702 166.615 435.471C222.211 374.914 280.473 316.095 343.095 262.751C369.727 240.064 397.894 218.412 427.975 200.431C440.642 192.858 453.975 186.593 467.095 179.871C485.261 170.562 503.207 159.599 522.615 152.991C536.492 148.265 548.11 145.774 549.015 162.591C551.63 211.24 544.299 261.438 553.655 309.551C554.979 316.363 555.835 334.411 564.055 337.151C568.844 338.747 573.508 337.51 577.815 335.071C596.994 324.206 614.299 309.053 632.375 296.511C674.14 267.531 718.528 240.95 757.255 207.871C771.841 195.412 786.493 182.923 802.375 172.111C802.957 171.714 804.819 170.709 804.215 171.071C792.158 178.269 780.844 186.236 769.655 194.751C731.539 223.753 692.556 255.264 662.615 292.991C652.583 305.63 641.488 317.639 631.895 330.591C628.59 335.051 619.411 349.78 627.735 335.631C657.512 285.009 685.112 234.324 720.055 186.751C739.53 160.235 760.419 134.431 786.455 114.111C787.478 113.312 803.282 101.191 799.255 108.351C795.513 115.002 788.614 120.187 783.175 125.311C771.79 136.033 760.665 147.016 750.055 158.511C735.979 173.76 720.797 190.477 709.255 207.791C696.679 226.654 725.797 164.915 739.575 146.911C743.912 141.243 750.018 133.418 756.375 129.951C762.834 126.427 756.931 138.773 756.295 139.791C743.025 161.021 720.935 177.908 703.735 195.711C680.658 219.594 658.172 244.292 636.695 269.631C629.275 278.383 620.554 288.067 610.695 294.111C602.162 299.34 601.818 295.603 602.855 286.271C604.103 275.032 610.055 264.671 615.895 255.231C620.541 247.718 624.718 238.975 632.535 234.111C636.859 231.42 637.175 234.364 637.175 237.951C637.175 252.156 634.019 262.189 627.175 274.671C621.55 284.927 613.979 303.767 602.615 309.151C596.598 312 599.679 243.865 599.975 241.471C603.738 210.974 613.046 181.879 623.735 153.151C643.288 100.594 667.053 49.7663 693.175 0.190613C714.249 -39.8049 733.94 -84.2953 764.855 -118.049C770.424 -124.131 784.895 -141.682 783.175 -121.729C781.124 -97.939 771.601 -74.2026 763.015 -52.2094C746.973 -11.1199 727.952 28.8118 708.135 68.1906C660.403 163.036 609.75 256.555 559.255 349.951C547.431 371.819 535.083 393.242 522.135 414.431C519.732 418.362 516.996 422.064 514.295 425.791C514.247 425.856 509.45 432.569 509.175 431.951C507.739 428.721 510.461 422.14 511.495 419.311C517.124 403.891 526.523 389.163 535.495 375.631C592.647 289.423 671.543 214.151 754.935 153.631C792.602 126.294 834.847 102.01 879.895 89.3106C885.679 87.6799 917.924 75.6642 916.535 90.4306C914.524 111.795 896.274 134.417 883.895 150.431C857.084 185.111 825.895 216.703 795.415 248.111C770.432 273.853 745.119 298.148 717.015 320.351C710.204 325.731 695.55 341.741 686.295 341.311C681.119 341.07 699.95 313.82 700.375 313.231C717.994 288.798 741.109 266.82 767.255 251.631C772.54 248.56 819.304 225.178 813.655 246.431C812.459 250.93 809.54 254.201 806.295 257.391C796.092 267.417 785.295 276.872 775.015 286.831C749.333 311.71 722.288 334.835 693.175 355.631C681.871 363.705 670.808 371.995 657.815 377.151C654.824 378.337 646.432 382.792 642.935 380.831C638.544 378.368 640.055 365.268 640.055 361.951C640.055 303.425 652.064 249.658 673.095 195.071C687.199 158.462 704.208 124.33 728.695 93.6306C731.69 89.8753 743.638 72.3603 750.935 75.0706C758.113 77.7369 755.229 111.157 755.255 116.831C755.376 143.893 753.571 168.97 746.935 195.391C740.69 220.253 730.642 241.7 720.695 264.911C718.195 270.743 711.866 279.998 711.255 286.111C710.551 293.15 719.32 274.482 723.575 268.831C733.529 255.61 748.695 247.581 764.935 245.551C774.084 244.407 786.99 242.704 795.335 247.711C801.349 251.32 803.426 263.047 802.455 269.471C801.236 277.533 793.806 283.737 788.055 288.671C773.536 301.125 757.452 310.601 739.895 318.111C715.303 328.629 687.368 339.803 660.295 342.511C654.032 343.137 655.895 336.307 655.895 331.871C655.895 311.126 655.745 290.375 655.895 269.631C656.042 249.258 656.221 227.825 661.655 208.031C663.838 200.078 666.081 175.8 667.335 183.951C667.789 186.903 666.399 190.815 665.175 193.311C655.669 212.692 640.086 230.189 626.775 246.911C599.063 281.722 569.843 312.116 535.415 340.191C519.565 353.115 468.413 387.101 484.775 374.831C492.676 368.905 499.637 360.116 509.015 356.991" stroke="#BD1010" stroke-linecap="round" stroke-linejoin="round"/>
</svg>
